<svg xmlns="http://www.w3.org/2000/svg" xmlns:xlink="http://www.w3.org/1999/xlink" width="637.094" height="334.299" viewBox="0 0 637.094 334.299">
  <defs>
    <linearGradient id="linear-gradient" x1="0.5" y1="1" x2="0.5" gradientUnits="objectBoundingBox">
      <stop offset="0" stop-color="gray" stop-opacity="0.251"/>
      <stop offset="0.54" stop-color="gray" stop-opacity="0.122"/>
      <stop offset="1" stop-color="gray" stop-opacity="0.102"/>
    </linearGradient>
    <linearGradient id="linear-gradient-2" x1="0.5" y1="1" x2="0.5" y2="-0.001" xlink:href="#linear-gradient"/>
  </defs>
  <g id="Group_23" data-name="Group 23" transform="translate(0 0.359)">
    <g id="Group_15" data-name="Group 15" transform="translate(247.135 22.893)" opacity="0.1">
      <ellipse id="Ellipse_29" data-name="Ellipse 29" cx="6.615" cy="8.661" rx="6.615" ry="8.661" transform="translate(24.932 178.793)" fill="#3f3d56"/>
      <path id="Path_114" data-name="Path 114" d="M531.875,450.947a10.463,10.463,0,0,0,1.383-5.3c0-4.784-2.965-8.661-6.621-8.661S520,440.879,520,445.663a10.464,10.464,0,0,0,1.383,5.3,10.818,10.818,0,0,0,0,10.585,10.818,10.818,0,0,0,0,10.585,10.428,10.428,0,0,0-1.383,5.3c0,4.778,2.965,8.661,6.615,8.661s6.621-3.883,6.621-8.661a10.429,10.429,0,0,0-1.383-5.3,10.818,10.818,0,0,0,0-10.585,10.818,10.818,0,0,0,0-10.585Z" transform="translate(-495.091 -300.55)" fill="#3f3d56"/>
      <ellipse id="Ellipse_30" data-name="Ellipse 30" cx="6.615" cy="8.661" rx="6.615" ry="8.661" transform="translate(24.932 125.866)" fill="#3f3d56"/>
      <ellipse id="Ellipse_31" data-name="Ellipse 31" cx="6.615" cy="8.661" rx="6.615" ry="8.661" transform="translate(24.932 115.281)" fill="#3f3d56"/>
      <path id="Path_115" data-name="Path 115" d="M483.933,253.767a30.856,30.856,0,0,1-2.465-3.627l17.381-2.854-18.8.139a31.75,31.75,0,0,1-.581-25.112L504.691,235.4,481.44,218.3a31.7,31.7,0,1,1,52.316,35.459,31.7,31.7,0,0,1,3.616,5.778L514.8,271.287l24.06-8.074a31.7,31.7,0,0,1-5.11,29.762,31.692,31.692,0,1,1-49.817,0,31.692,31.692,0,0,1,0-39.191Z" transform="translate(-477.149 -202.271)" fill="#6c63ff"/>
      <path id="Path_116" data-name="Path 116" d="M540.534,324.234a31.547,31.547,0,0,1-6.784,19.6,31.692,31.692,0,1,1-49.817,0C479.684,338.434,540.534,320.676,540.534,324.234Z" transform="translate(-477.149 -253.142)" opacity="0.1"/>
    </g>
    <g id="Group_16" data-name="Group 16" transform="translate(332.335 51.86)" opacity="0.1">
      <ellipse id="Ellipse_32" data-name="Ellipse 32" cx="4.947" cy="6.47" rx="4.947" ry="6.47" transform="translate(18.63 133.497)" fill="#3f3d56"/>
      <path id="Path_117" data-name="Path 117" d="M664.619,437.748a7.806,7.806,0,0,0,1.029-3.953c0-3.575-2.215-6.476-4.941-6.476s-4.947,2.906-4.947,6.476a7.749,7.749,0,0,0,1.035,3.953,8.08,8.08,0,0,0,0,7.911,8.08,8.08,0,0,0,0,7.911,7.748,7.748,0,0,0-1.035,3.953c0,3.575,2.215,6.476,4.947,6.476s4.941-2.906,4.941-6.476a7.806,7.806,0,0,0-1.029-3.953,8.138,8.138,0,0,0,0-7.911,8.138,8.138,0,0,0,0-7.911Z" transform="translate(-637.135 -325.468)" fill="#3f3d56"/>
      <ellipse id="Ellipse_33" data-name="Ellipse 33" cx="4.947" cy="6.47" rx="4.947" ry="6.47" transform="translate(18.63 93.946)" fill="#3f3d56"/>
      <ellipse id="Ellipse_34" data-name="Ellipse 34" cx="4.947" cy="6.47" rx="4.947" ry="6.47" transform="translate(18.63 86.035)" fill="#3f3d56"/>
      <path id="Path_118" data-name="Path 118" d="M628.789,290.472a22.674,22.674,0,0,1-1.843-2.709l12.992-2.133-14.05.1a23.74,23.74,0,0,1-.453-18.77l18.851,9.783L626.9,263.96a23.688,23.688,0,1,1,39.115,26.507,23.952,23.952,0,0,1,2.7,4.319l-16.857,8.76,17.979-6.034a23.693,23.693,0,0,1-3.819,22.24,23.682,23.682,0,1,1-37.2,0,23.682,23.682,0,0,1,0-29.285Z" transform="translate(-623.72 -252.103)" fill="#6c63ff"/>
      <path id="Path_119" data-name="Path 119" d="M671.092,343.049a23.583,23.583,0,0,1-5.069,14.643,23.682,23.682,0,1,1-37.2,0C625.635,353.663,671.092,340.392,671.092,343.049Z" transform="translate(-623.728 -290.037)" opacity="0.1"/>
    </g>
    <g id="Group_17" data-name="Group 17" transform="translate(571.723 -0.359)" opacity="0.1">
      <ellipse id="Ellipse_35" data-name="Ellipse 35" cx="6.615" cy="8.661" rx="6.615" ry="8.661" transform="translate(25.378 178.793)" fill="#3f3d56"/>
      <path id="Path_120" data-name="Path 120" d="M1080.573,410.947a10.464,10.464,0,0,1-1.383-5.3c0-4.784,2.964-8.661,6.621-8.661s6.615,3.877,6.615,8.661a10.463,10.463,0,0,1-1.383,5.3,10.818,10.818,0,0,1,0,10.585,10.818,10.818,0,0,1,0,10.585,10.428,10.428,0,0,1,1.383,5.3c0,4.778-2.965,8.661-6.615,8.661s-6.621-3.883-6.621-8.661a10.429,10.429,0,0,1,1.383-5.3,10.818,10.818,0,0,1,0-10.585A10.818,10.818,0,0,1,1080.573,410.947Z" transform="translate(-1053.817 -260.55)" fill="#3f3d56"/>
      <ellipse id="Ellipse_36" data-name="Ellipse 36" cx="6.615" cy="8.661" rx="6.615" ry="8.661" transform="translate(25.378 125.866)" fill="#3f3d56"/>
      <ellipse id="Ellipse_37" data-name="Ellipse 37" cx="6.615" cy="8.661" rx="6.615" ry="8.661" transform="translate(25.378 115.281)" fill="#3f3d56"/>
      <path id="Path_121" data-name="Path 121" d="M1092.3,213.767a30.846,30.846,0,0,0,2.465-3.627l-17.381-2.854,18.8.14a31.75,31.75,0,0,0,.581-25.112L1071.54,195.4l23.252-17.1a31.7,31.7,0,1,0-52.316,35.459,31.7,31.7,0,0,0-3.616,5.778l22.571,11.754-24.06-8.074a31.7,31.7,0,0,0,5.109,29.762,31.692,31.692,0,1,0,49.817,0,31.692,31.692,0,0,0,0-39.191Z" transform="translate(-1035.541 -162.271)" fill="#6c63ff"/>
      <path id="Path_122" data-name="Path 122" d="M1035.81,284.234a31.547,31.547,0,0,0,6.784,19.6,31.692,31.692,0,1,0,49.817,0C1096.659,298.434,1035.81,280.676,1035.81,284.234Z" transform="translate(-1035.653 -213.142)" opacity="0.1"/>
    </g>
    <g id="Group_18" data-name="Group 18" transform="translate(516.044 48.372)" opacity="0.1">
      <ellipse id="Ellipse_38" data-name="Ellipse 38" cx="4.947" cy="6.47" rx="4.947" ry="6.47" transform="translate(18.865 133.497)" fill="#3f3d56"/>
      <path id="Path_123" data-name="Path 123" d="M973.259,431.748a7.806,7.806,0,0,1-1.029-3.953c0-3.575,2.215-6.476,4.941-6.476s4.947,2.906,4.947,6.476a7.748,7.748,0,0,1-1.035,3.953,8.08,8.08,0,0,1,0,7.911,8.08,8.08,0,0,1,0,7.911,7.748,7.748,0,0,1,1.035,3.953c0,3.575-2.215,6.476-4.947,6.476s-4.941-2.906-4.941-6.476a7.806,7.806,0,0,1,1.029-3.953,8.138,8.138,0,0,1,0-7.911,8.138,8.138,0,0,1,0-7.911Z" transform="translate(-953.353 -319.468)" fill="#3f3d56"/>
      <ellipse id="Ellipse_39" data-name="Ellipse 39" cx="4.947" cy="6.47" rx="4.947" ry="6.47" transform="translate(18.865 93.946)" fill="#3f3d56"/>
      <ellipse id="Ellipse_40" data-name="Ellipse 40" cx="4.947" cy="6.47" rx="4.947" ry="6.47" transform="translate(18.865 86.035)" fill="#3f3d56"/>
      <path id="Path_124" data-name="Path 124" d="M982.076,284.472a22.66,22.66,0,0,0,1.843-2.709l-12.992-2.133,14.05.1a23.74,23.74,0,0,0,.453-18.77l-18.851,9.783,17.386-12.788a23.688,23.688,0,1,0-39.115,26.507,23.951,23.951,0,0,0-2.7,4.319l16.857,8.76-17.944-6.028a23.694,23.694,0,0,0,3.819,22.24,23.682,23.682,0,1,0,37.2,0,23.682,23.682,0,0,0,0-29.285Z" transform="translate(-939.756 -246.103)" fill="#6c63ff"/>
      <path id="Path_125" data-name="Path 125" d="M939.791,337.049a23.583,23.583,0,0,0,5.069,14.643,23.682,23.682,0,1,0,37.2,0C985.248,347.663,939.791,334.392,939.791,337.049Z" transform="translate(-939.766 -284.037)" opacity="0.1"/>
    </g>
    <g id="Group_19" data-name="Group 19" transform="translate(4.249 -0.261)" opacity="0.1">
      <ellipse id="Ellipse_41" data-name="Ellipse 41" cx="6.615" cy="8.661" rx="6.615" ry="8.661" transform="translate(24.938 178.695)" fill="#3f3d56"/>
      <path id="Path_126" data-name="Path 126" d="M114.056,410.947a10.463,10.463,0,0,0,1.383-5.3c0-4.784-2.965-8.661-6.615-8.661s-6.615,3.877-6.615,8.661a10.463,10.463,0,0,0,1.378,5.3,10.853,10.853,0,0,0,0,10.585,10.853,10.853,0,0,0,0,10.585,10.423,10.423,0,0,0-1.378,5.3c0,4.778,2.959,8.661,6.615,8.661s6.633-3.871,6.633-8.65a10.428,10.428,0,0,0-1.383-5.3,10.818,10.818,0,0,0,0-10.585,10.818,10.818,0,0,0,0-10.585Z" transform="translate(-77.272 -260.648)" fill="#3f3d56"/>
      <ellipse id="Ellipse_42" data-name="Ellipse 42" cx="6.615" cy="8.661" rx="6.615" ry="8.661" transform="translate(24.938 125.769)" fill="#3f3d56"/>
      <ellipse id="Ellipse_43" data-name="Ellipse 43" cx="6.615" cy="8.661" rx="6.615" ry="8.661" transform="translate(24.938 115.183)" fill="#3f3d56"/>
      <path id="Path_127" data-name="Path 127" d="M66.1,213.837a31.58,31.58,0,0,1-2.465-3.627l17.386-2.854-18.816.169a31.75,31.75,0,0,1-.581-25.112L86.857,195.5,63.605,178.4a31.692,31.692,0,1,1,52.316,35.459,31.7,31.7,0,0,1,3.616,5.778L96.96,231.357l24.065-8.074a31.733,31.733,0,0,1-5.115,29.762,31.692,31.692,0,1,1-49.817,0,31.692,31.692,0,0,1,0-39.191Z" transform="translate(-59.309 -162.439)" fill="#6c63ff"/>
      <path id="Path_128" data-name="Path 128" d="M122.694,284.234a31.547,31.547,0,0,1-6.784,19.6,31.692,31.692,0,1,1-49.817,0C61.844,298.434,122.694,280.676,122.694,284.234Z" transform="translate(-59.309 -213.24)" opacity="0.1"/>
    </g>
    <g id="Group_20" data-name="Group 20" transform="translate(76.079 48.372)" opacity="0.1">
      <ellipse id="Ellipse_44" data-name="Ellipse 44" cx="4.947" cy="6.47" rx="4.947" ry="6.47" transform="translate(18.63 133.497)" fill="#3f3d56"/>
      <path id="Path_129" data-name="Path 129" d="M223.789,431.748a7.806,7.806,0,0,0,1.029-3.953c0-3.575-2.209-6.476-4.941-6.476s-4.947,2.906-4.947,6.476a7.807,7.807,0,0,0,1.035,3.953,8.08,8.08,0,0,0,0,7.911,8.08,8.08,0,0,0,0,7.911,7.807,7.807,0,0,0-1.035,3.953c0,3.575,2.215,6.476,4.947,6.476s4.941-2.906,4.941-6.476a7.807,7.807,0,0,0-1.029-3.953,8.138,8.138,0,0,0,0-7.911,8.138,8.138,0,0,0,0-7.911Z" transform="translate(-196.3 -319.468)" fill="#3f3d56"/>
      <ellipse id="Ellipse_45" data-name="Ellipse 45" cx="4.947" cy="6.47" rx="4.947" ry="6.47" transform="translate(18.63 93.946)" fill="#3f3d56"/>
      <ellipse id="Ellipse_46" data-name="Ellipse 46" cx="4.947" cy="6.47" rx="4.947" ry="6.47" transform="translate(18.63 86.035)" fill="#3f3d56"/>
      <path id="Path_130" data-name="Path 130" d="M187.949,284.472a23.371,23.371,0,0,1-1.843-2.709L199.1,279.63l-14.05.1a23.74,23.74,0,0,1-.453-18.77l18.851,9.783L186.06,257.96a23.688,23.688,0,1,1,39.115,26.507,23.323,23.323,0,0,1,2.7,4.319l-16.857,8.76L229,291.512a23.693,23.693,0,0,1-3.819,22.24,23.682,23.682,0,1,1-37.2,0,23.682,23.682,0,0,1,0-29.285Z" transform="translate(-182.88 -246.103)" fill="#6c63ff"/>
      <path id="Path_131" data-name="Path 131" d="M230.252,337.049a23.583,23.583,0,0,1-5.069,14.643,23.682,23.682,0,1,1-37.2,0C184.783,347.663,230.252,334.392,230.252,337.049Z" transform="translate(-182.888 -284.037)" opacity="0.1"/>
    </g>
    <ellipse id="Ellipse_47" data-name="Ellipse 47" cx="318.547" cy="5.15" rx="318.547" ry="5.15" transform="translate(0 281.351)" fill="#6c63ff" opacity="0.1"/>
    <ellipse id="Ellipse_48" data-name="Ellipse 48" cx="318.547" cy="5.15" rx="318.547" ry="5.15" transform="translate(0 323.64)" fill="#6c63ff" opacity="0.1"/>
    <ellipse id="Ellipse_49" data-name="Ellipse 49" cx="318.547" cy="5.15" rx="318.547" ry="5.15" transform="translate(0 193.094)" fill="#6c63ff" opacity="0.1"/>
    <ellipse id="Ellipse_50" data-name="Ellipse 50" cx="318.547" cy="5.15" rx="318.547" ry="5.15" transform="translate(0 237.22)" fill="#6c63ff" opacity="0.1"/>
    <path id="Path_132" data-name="Path 132" d="M837.832,262.8a10.637,10.637,0,0,0-6.162.674,9.1,9.1,0,0,1-7.406,0,10.394,10.394,0,0,0-8.719.169,5.371,5.371,0,0,1-2.505.628c-3.534,0-6.47-3.557-7.08-8.248a6.9,6.9,0,0,0,1.744-1.9c2.069-3.337,5.272-5.482,8.876-5.482s6.766,2.116,8.836,5.418a6.789,6.789,0,0,0,5.865,3.22h.093C834.217,257.249,836.652,259.5,837.832,262.8Z" transform="translate(-367.69 -198.793)" fill="#6c63ff" opacity="0.1"/>
    <path id="Path_133" data-name="Path 133" d="M848.583,238.61l-5.708,3.616,3.488-6.3a5.639,5.639,0,0,0-3.453-1.227h-.093a6.6,6.6,0,0,1-1.163-.087l-1.965,1.227.831-1.511a6.853,6.853,0,0,1-3.389-2.569l-3.488,2.2,2.186-3.976a10.129,10.129,0,0,0-7.754-3.918c-3.6,0-6.807,2.139-8.882,5.476a6.633,6.633,0,0,1-5.865,3.162h-.192c-3.976,0-7.2,4.505-7.2,10.062s3.22,10.068,7.2,10.068a5.458,5.458,0,0,0,2.505-.628,10.382,10.382,0,0,1,8.719-.174,9.039,9.039,0,0,0,7.406,0,10.417,10.417,0,0,1,8.638.169,5.405,5.405,0,0,0,2.476.616c3.976,0,7.2-4.511,7.2-10.068A12.748,12.748,0,0,0,848.583,238.61Z" transform="translate(-367.682 -189.339)" fill="#6c63ff" opacity="0.1"/>
    <path id="Path_134" data-name="Path 134" d="M427.2,260.451a7.464,7.464,0,0,0-4.319.471,6.347,6.347,0,0,1-5.179,0,7.255,7.255,0,0,0-6.1.122,3.848,3.848,0,0,1-1.744.436c-2.47,0-4.528-2.488-4.958-5.772a4.836,4.836,0,0,0,1.238-1.331,6.946,6.946,0,0,1,12.4-.047,4.761,4.761,0,0,0,4.11,2.255h.064C424.664,256.574,426.367,258.155,427.2,260.451Z" transform="translate(-199.763 -199.589)" fill="#6c63ff" opacity="0.1"/>
    <path id="Path_135" data-name="Path 135" d="M434.718,243.529l-3.993,2.534,2.424-4.412a3.924,3.924,0,0,0-2.412-.86h-.07a4.355,4.355,0,0,1-.825-.064l-1.354.86.581-1.058a4.825,4.825,0,0,1-2.372-1.8l-2.424,1.535,1.535-2.779a7.1,7.1,0,0,0-5.429-2.75,7.435,7.435,0,0,0-6.214,3.837,4.65,4.65,0,0,1-4.11,2.215h-.134c-2.784,0-5.04,3.151-5.04,7.045s2.255,7.045,5.04,7.045a3.779,3.779,0,0,0,1.744-.442,7.266,7.266,0,0,1,6.092-.116,6.243,6.243,0,0,0,5.185.035,7.29,7.29,0,0,1,6.045.116,3.767,3.767,0,0,0,1.744.43c2.779,0,5.034-3.156,5.034-7.045a8.911,8.911,0,0,0-1.046-4.331Z" transform="translate(-199.754 -192.973)" fill="#6c63ff" opacity="0.1"/>
    <path id="Path_136" data-name="Path 136" d="M321.59,338.861a7.452,7.452,0,0,1,4.313.471,6.359,6.359,0,0,0,5.185,0,7.278,7.278,0,0,1,6.1.116,3.761,3.761,0,0,0,1.744.442c2.471,0,4.528-2.494,4.953-5.778a4.738,4.738,0,0,1-1.232-1.331,6.953,6.953,0,0,0-12.4-.041,4.761,4.761,0,0,1-4.1,2.255h-.064C324.119,335.007,322.41,336.582,321.59,338.861Z" transform="translate(-164.88 -232.42)" fill="#6c63ff" opacity="0.1"/>
    <path id="Path_137" data-name="Path 137" d="M307.888,321.973l4,2.534-2.43-4.406a3.947,3.947,0,0,1,2.418-.866h.064a4.954,4.954,0,0,0,.831-.058l1.354.854-.581-1.052a4.819,4.819,0,0,0,2.366-1.8l2.424,1.535-1.511-2.784a7.092,7.092,0,0,1,5.429-2.744,7.443,7.443,0,0,1,6.214,3.837,4.65,4.65,0,0,0,4.1,2.215h.14c2.779,0,5.034,3.156,5.034,7.045s-2.255,7.045-5.034,7.045a3.773,3.773,0,0,1-1.744-.436,7.254,7.254,0,0,0-6.1-.122,6.314,6.314,0,0,1-2.6.581,6.394,6.394,0,0,1-2.581-.546,7.278,7.278,0,0,0-6.04.116,3.767,3.767,0,0,1-1.744.43c-2.784,0-5.04-3.151-5.04-7.045a8.975,8.975,0,0,1,1.029-4.336Z" transform="translate(-158.711 -225.821)" fill="#6c63ff" opacity="0.1"/>
    <path id="Path_138" data-name="Path 138" d="M711.611,608.306c1.517-2.813-.2-6.255-2.18-8.76s-4.395-5.115-4.342-8.307c.076-4.586,4.947-7.3,8.836-9.731a43.188,43.188,0,0,0,7.935-6.394,11.7,11.7,0,0,0,2.436-3.267,13.213,13.213,0,0,0,.732-5.813q-.25-9.818-.971-19.624" transform="translate(-325.454 -323.473)" fill="none" stroke="#3f3d56" stroke-miterlimit="10" stroke-width="4"/>
    <path id="Path_139" data-name="Path 139" d="M740.147,540.933a7.155,7.155,0,0,0-3.575-5.865l-1.6,3.168.052-3.836a7.156,7.156,0,1,0,5.127,6.534Z" transform="translate(-334.145 -318.322)" fill="#6c63ff"/>
    <path id="Path_140" data-name="Path 140" d="M718.752,621.7a7.156,7.156,0,0,1-13.509-2.906,6.975,6.975,0,0,1,.465-2.906,7.161,7.161,0,0,1,13.37.076l-4.47,3.639,4.918-1.163A7.115,7.115,0,0,1,718.752,621.7Z" transform="translate(-325.515 -350.657)" fill="#6c63ff"/>
    <path id="Path_141" data-name="Path 141" d="M717.013,594.964a7.156,7.156,0,0,1-2.267-14.038l-.041,2.947,1.622-3.209h0a7.158,7.158,0,1,1,.669,14.3Z" transform="translate(-327.31 -337.812)" fill="#6c63ff"/>
    <path id="Path_142" data-name="Path 142" d="M746.879,575.078a7.156,7.156,0,1,1,3.162-13.37L748.78,565.2l2.575-2.546a7.156,7.156,0,0,1-4.5,12.422Z" transform="translate(-339.802 -329.488)" fill="#6c63ff"/>
    <path id="Path_143" data-name="Path 143" d="M739.174,545.667c-1.651.18-3.255.692-4.918.8a5.321,5.321,0,0,1-4.522-1.581,22.958,22.958,0,0,1-1.325-2.325,5.092,5.092,0,0,0-1.8-1.7,7.156,7.156,0,1,0,13.37,4.755C739.714,545.621,739.441,545.638,739.174,545.667Z" transform="translate(-334.137 -321.149)" opacity="0.1"/>
    <path id="Path_144" data-name="Path 144" d="M746.9,578.027a7.156,7.156,0,0,1-6.807-10.207,5.3,5.3,0,0,1,1.436,1.442,24.247,24.247,0,0,0,1.418,2.366,5.838,5.838,0,0,0,4.749,1.657c1.726-.087,3.395-.581,5.115-.727.238,0,.477-.035.721-.041A7.156,7.156,0,0,1,746.9,578.027Z" transform="translate(-339.824 -332.437)" opacity="0.1"/>
    <path id="Path_145" data-name="Path 145" d="M717.014,598.014a7.156,7.156,0,0,1-6.865-10.074,5.812,5.812,0,0,1,1.517,1.453,23.979,23.979,0,0,0,1.552,2.412,6.48,6.48,0,0,0,5.063,1.744c1.825-.076,3.488-.471,5.232-.581a7.167,7.167,0,0,1-6.5,5.046Z" transform="translate(-327.312 -340.862)" opacity="0.1"/>
    <path id="Path_146" data-name="Path 146" d="M718.752,624.983a7.156,7.156,0,0,1-13.509-2.906,6.975,6.975,0,0,1,.465-2.906,7.143,7.143,0,0,1,1.569,1.4c.68.825,1.128,1.744,1.918,2.54a8.943,8.943,0,0,0,5.923,2.081,30.049,30.049,0,0,0,3.633-.209Z" transform="translate(-325.515 -353.938)" opacity="0.1"/>
    <path id="Path_147" data-name="Path 147" d="M101.611,536.306c1.517-2.813-.2-6.255-2.18-8.76s-4.395-5.127-4.342-8.307c.076-4.586,4.947-7.3,8.836-9.731a43.19,43.19,0,0,0,7.935-6.394,11.7,11.7,0,0,0,2.436-3.267,13.212,13.212,0,0,0,.732-5.813q-.256-9.818-.971-19.624" transform="translate(-70.042 -293.326)" fill="none" stroke="#3f3d56" stroke-miterlimit="10" stroke-width="4"/>
    <path id="Path_148" data-name="Path 148" d="M130.147,468.934a7.156,7.156,0,0,0-3.575-5.865l-1.6,3.168.052-3.837a7.156,7.156,0,1,0,5.127,6.534Z" transform="translate(-78.732 -288.174)" fill="#6c63ff"/>
    <path id="Path_149" data-name="Path 149" d="M108.752,549.7A7.156,7.156,0,0,1,95.243,546.8a6.976,6.976,0,0,1,.465-2.906,7.161,7.161,0,0,1,13.37.076l-4.47,3.639,4.918-1.163a7.115,7.115,0,0,1-.773,3.261Z" transform="translate(-70.102 -320.51)" fill="#6c63ff"/>
    <path id="Path_150" data-name="Path 150" d="M107.013,522.964a7.156,7.156,0,0,1-2.267-14.038l-.041,2.947,1.622-3.209h0a7.158,7.158,0,1,1,.668,14.3Z" transform="translate(-71.897 -307.665)" fill="#6c63ff"/>
    <path id="Path_151" data-name="Path 151" d="M136.879,503.078a7.156,7.156,0,1,1,3.162-13.37L138.78,493.2l2.575-2.546a7.156,7.156,0,0,1-4.5,12.422Z" transform="translate(-84.389 -299.341)" fill="#6c63ff"/>
    <path id="Path_152" data-name="Path 152" d="M129.174,473.667c-1.651.18-3.255.692-4.918.8a5.321,5.321,0,0,1-4.522-1.581,22.954,22.954,0,0,1-1.325-2.325,5.092,5.092,0,0,0-1.8-1.7,7.156,7.156,0,1,0,13.37,4.755C129.714,473.621,129.441,473.638,129.174,473.667Z" transform="translate(-78.724 -291.002)" opacity="0.1"/>
    <path id="Path_153" data-name="Path 153" d="M136.9,506.027A7.156,7.156,0,0,1,130.1,495.82a5.3,5.3,0,0,1,1.436,1.442,24.249,24.249,0,0,0,1.418,2.366,5.838,5.838,0,0,0,4.749,1.657c1.726-.087,3.395-.581,5.115-.727.238,0,.477-.035.721-.041A7.156,7.156,0,0,1,136.9,506.027Z" transform="translate(-84.411 -302.29)" opacity="0.1"/>
    <path id="Path_154" data-name="Path 154" d="M107.014,526.014a7.156,7.156,0,0,1-6.865-10.074,5.813,5.813,0,0,1,1.517,1.453,23.964,23.964,0,0,0,1.552,2.412,6.48,6.48,0,0,0,5.063,1.744c1.825-.076,3.488-.471,5.232-.581A7.167,7.167,0,0,1,107.014,526.014Z" transform="translate(-71.899 -310.715)" opacity="0.1"/>
    <path id="Path_155" data-name="Path 155" d="M108.752,552.983a7.156,7.156,0,0,1-13.509-2.906,6.976,6.976,0,0,1,.465-2.906,7.144,7.144,0,0,1,1.569,1.4c.68.825,1.128,1.744,1.918,2.54a8.942,8.942,0,0,0,5.923,2.081A30.063,30.063,0,0,0,108.752,552.983Z" transform="translate(-70.102 -323.791)" opacity="0.1"/>
    <path id="Path_156" data-name="Path 156" d="M502.843,453.944c-1.517-2.808.2-6.249,2.186-8.754s4.389-5.115,4.336-8.307c-.07-4.592-4.941-7.3-8.836-9.731a43.013,43.013,0,0,1-7.929-6.394,11.5,11.5,0,0,1-2.441-3.261,13.4,13.4,0,0,1-.732-5.813q.262-9.818.971-19.624" transform="translate(-235.147 -258.845)" fill="none" stroke="#3f3d56" stroke-miterlimit="10" stroke-width="4"/>
    <path id="Path_157" data-name="Path 157" d="M478.384,386.574a7.15,7.15,0,0,1,3.569-5.865l1.6,3.168-.047-3.836a7.337,7.337,0,0,1,2.354-.285,7.156,7.156,0,1,1-7.481,6.819Z" transform="translate(-230.528 -253.69)" fill="#6c63ff"/>
    <path id="Path_158" data-name="Path 158" d="M499.771,467.3a7.156,7.156,0,1,0-.343-5.761l4.47,3.639-4.918-1.163A7.115,7.115,0,0,0,499.771,467.3Z" transform="translate(-239.155 -285.983)" fill="#6c63ff"/>
    <path id="Path_159" data-name="Path 159" d="M501.507,440.6a7.156,7.156,0,0,0,2.273-14.038l.035,2.947-1.622-3.209h0a7.156,7.156,0,0,0-7.5,6.8A7.068,7.068,0,0,0,495,435.54a7.15,7.15,0,0,0,6.5,5.063Z" transform="translate(-237.357 -273.179)" fill="#6c63ff"/>
    <path id="Path_160" data-name="Path 160" d="M471.613,420.7a7.156,7.156,0,1,0-3.168-13.37l1.267,3.488-2.6-2.494a7.1,7.1,0,0,0-2.325,4.941,6.92,6.92,0,0,0,.18,1.971,7.15,7.15,0,0,0,6.65,5.464Z" transform="translate(-224.832 -264.847)" fill="#6c63ff"/>
    <path id="Path_161" data-name="Path 161" d="M479.472,391.307c1.651.18,3.255.692,4.912.8a5.345,5.345,0,0,0,4.528-1.581,22.9,22.9,0,0,0,1.32-2.325,5.109,5.109,0,0,1,1.808-1.7,7.156,7.156,0,1,1-13.37,4.749C478.932,391.255,479.2,391.278,479.472,391.307Z" transform="translate(-230.651 -256.517)" opacity="0.1"/>
    <path id="Path_162" data-name="Path 162" d="M471.763,423.647a7.161,7.161,0,0,0,6.807-10.207,5.32,5.32,0,0,0-1.442,1.442,24.247,24.247,0,0,1-1.418,2.366,5.818,5.818,0,0,1-4.743,1.657c-1.726-.087-3.395-.581-5.115-.727-.238,0-.482-.035-.721-.041A7.15,7.15,0,0,0,471.763,423.647Z" transform="translate(-224.982 -267.797)" opacity="0.1"/>
    <path id="Path_163" data-name="Path 163" d="M501.739,443.654A7.15,7.15,0,0,0,508.6,433.58a5.714,5.714,0,0,0-1.511,1.453,23.965,23.965,0,0,1-1.552,2.412,6.493,6.493,0,0,1-5.069,1.744c-1.831-.076-3.488-.471-5.232-.581a7.15,7.15,0,0,0,6.5,5.046Z" transform="translate(-237.589 -276.23)" opacity="0.1"/>
    <path id="Path_164" data-name="Path 164" d="M500.34,470.623a7.156,7.156,0,0,0,13.05-5.813,6.872,6.872,0,0,0-1.57,1.4c-.68.825-1.163,1.744-1.918,2.54a8.957,8.957,0,0,1-5.929,2.081A31.364,31.364,0,0,1,500.34,470.623Z" transform="translate(-239.724 -289.306)" opacity="0.1"/>
    <circle id="Ellipse_51" data-name="Ellipse 51" cx="58.106" cy="58.106" r="58.106" transform="translate(395.144 80.196)" fill="#3f3d56"/>
    <path id="Path_165" data-name="Path 165" d="M837.6,396.719a44.025,44.025,0,0,0-9.3-6.214c-2.784-1.337-3.807-1.314-5.778.11-1.639,1.163-2.7,2.284-4.586,1.872s-5.615-3.226-9.225-6.824-6.412-7.307-6.813-9.219.7-2.953,1.878-4.592c1.418-1.971,1.459-2.994.11-5.778a44.579,44.579,0,0,0-6.22-9.3c-2.04-2.035-2.482-1.587-3.6-1.163a20.806,20.806,0,0,0-3.3,1.744,9.944,9.944,0,0,0-3.953,4.179c-.8,1.7-1.7,4.848,2.935,13.1A73.062,73.062,0,0,0,802.6,391.76h0a73.17,73.17,0,0,0,17.189,12.87c8.243,4.65,11.4,3.726,13.1,2.935a9.758,9.758,0,0,0,4.174-3.953,20.538,20.538,0,0,0,1.744-3.3C839.184,399.2,839.637,398.747,837.6,396.719Z" transform="translate(-359.404 -243.431)" fill="#6c63ff"/>
    <path id="Path_166" data-name="Path 166" d="M789.838,300.86a58.129,58.129,0,1,0,58.1,58.11A58.129,58.129,0,0,0,789.838,300.86Zm0,108.48a50.38,50.38,0,1,1,50.38-50.38,50.38,50.38,0,0,1-50.38,50.38Z" transform="translate(-336.589 -220.658)" opacity="0.1"/>
    <circle id="Ellipse_52" data-name="Ellipse 52" cx="58.106" cy="58.106" r="58.106" transform="translate(261.65 168.453)" fill="#3f3d56"/>
    <path id="Path_167" data-name="Path 167" d="M610.908,522.351l-17.4,17.7a.314.314,0,0,0,0,.453l12.207,12.98a2.1,2.1,0,1,1-2.97,2.97L590.6,543.522a.331.331,0,0,0-.465,0l-2.959,2.988a13,13,0,0,1-9.3,3.912,13.288,13.288,0,0,1-9.463-4.023l-2.842-2.906a.331.331,0,0,0-.465,0l-12.114,12.9a2.1,2.1,0,1,1-2.97-2.97l12.161-12.951a.349.349,0,0,0,0-.453l-17.4-17.7a.32.32,0,0,0-.546.227v35.418a5.185,5.185,0,0,0,5.168,5.168H606.3a5.185,5.185,0,0,0,5.168-5.168V522.578a.32.32,0,0,0-.558-.227Z" transform="translate(-258.106 -313.347)" fill="#6c63ff"/>
    <path id="Path_168" data-name="Path 168" d="M579.29,542.2a8.8,8.8,0,0,0,6.348-2.616l25.338-25.792a5.057,5.057,0,0,0-3.2-1.163H550.847a5.022,5.022,0,0,0-3.2,1.163l25.344,25.792A8.766,8.766,0,0,0,579.29,542.2Z" transform="translate(-259.533 -309.329)" fill="#6c63ff"/>
    <path id="Path_169" data-name="Path 169" d="M558.928,452.69a58.129,58.129,0,1,0,58.1,58.11A58.129,58.129,0,0,0,558.928,452.69Zm0,108.48a50.38,50.38,0,1,1,50.38-50.38,50.38,50.38,0,0,1-50.38,50.38Z" transform="translate(-239.904 -284.231)" opacity="0.1"/>
    <circle id="Ellipse_53" data-name="Ellipse 53" cx="58.106" cy="58.106" r="58.106" transform="translate(123.751 125.06)" fill="#3f3d56"/>
    <path id="Path_170" data-name="Path 170" d="M348.164,430.16,325,483.6l2.162,2.162L348.17,476.5l21.008,9.266,2.162-2.162Z" transform="translate(-166.308 -274.798)" fill="#6c63ff"/>
    <path id="Path_171" data-name="Path 171" d="M322.958,378a58.1,58.1,0,1,0,.01,0Zm0,108.48a41.441,41.441,0,1,1,.006.023Z" transform="translate(-141.101 -252.958)" opacity="0.1"/>
    <path id="Path_172" data-name="Path 172" d="M820.943,585.7q-.791-1.93-1.622-3.848a11.421,11.421,0,0,0-1.982-3.424,3.627,3.627,0,0,0-1.163-.872,4.957,4.957,0,0,0-1.517-.3,12.109,12.109,0,0,0-2.383-.064c-.308-.093-.657-.215-1-.355a8.3,8.3,0,0,0,6.185-7.7c0-.116,0-.238,0-.355a8.283,8.283,0,0,0-8.248-8.318,8.138,8.138,0,0,0-4.331,1.238,7.772,7.772,0,0,0-8.719,4.2,9.609,9.609,0,0,0-2.964,7.15c0,.122,0,.25,0,.366.151,4.517,3.069,8.138,6.755,8.5a3.87,3.87,0,0,0-1.07.715c-1.128,1.087-1.314,2.813-1.436,4.383l-.087,1.163-1.953.7a.36.36,0,0,0-.087.634l1.866,1.331v.331a1.454,1.454,0,0,0,.035.378,2.669,2.669,0,0,0-.721,1.029,4.753,4.753,0,0,0-.169,1.883l.07,1.622a12.738,12.738,0,0,0,.494,3.61c.244.721,1.3,2.459,2.064,2.471a75.2,75.2,0,0,0-.889,9.94c-.087.087.157.169.581.238.419,3.209,1.785,12.207,4.209,16.166a34.085,34.085,0,0,1,.913,3.93s.692,8.551,1.6,11.091c.779,2.162,1.4,7.5,1.564,9.045a.889.889,0,0,0-.645.663c-.459,1.383-3.435,3.488-3.435,3.488a14.39,14.39,0,0,0-2.569,1.645c-.936.843-.9,1.6,3.255,1.128,8.022-.924,9.394-3.488,9.394-3.488s-.128-.43-.32-.988a10.734,10.734,0,0,0-1.052-2.482c-.116-.11-.233.076-.372.366a49.771,49.771,0,0,1-.546-11.225,18.211,18.211,0,0,0-.918-6.7,12.691,12.691,0,0,1,0-4.389c.459-1.849-1.831-10.864-1.831-10.864l-1.314-6.638a1.906,1.906,0,0,1,.366.773l.035.134.035.192a.361.361,0,0,0,.093.18c.9,3.72,3.348,14.026,3.348,15.538,0,1.849,2.29,6.47,2.29,6.47S813.666,644,815.27,647c1.221,2.284,1.25,5.633,1.192,7.109h0a6.585,6.585,0,0,1-.732,2.36,5.616,5.616,0,0,0-.866,1.506l-.052.11s-.686,1.389-.227,1.622a11.261,11.261,0,0,0,5.5.692s.918-1.163.918-1.616a7.286,7.286,0,0,0-.1-.825c-.169-1.093-.482-2.813-.488-2.831a7.933,7.933,0,0,0-.581-2.813l-.232-6.47a29.868,29.868,0,0,0-1.6-12.945s-1.163-4.156-.913-5.313-.459-13.4-.459-13.4l-.07-.174a13.248,13.248,0,0,1,.07-2.6,34.517,34.517,0,0,0-.918-8.777,7.62,7.62,0,0,1-.326-1.912c.052-.483.209-1.9.424-3.651a65.636,65.636,0,0,0,6.755-.581.843.843,0,0,0,.581-.233.814.814,0,0,0,.134-.471C823.536,592.3,822.263,588.92,820.943,585.7Zm-4.61,7.33c.238-1.657.494-3.261.75-4.453l.035.1a32.351,32.351,0,0,1,1.1,3.662A12.454,12.454,0,0,1,816.334,593.03Z" transform="translate(-362.346 -329.355)" fill="url(#linear-gradient)"/>
    <path id="Path_173" data-name="Path 173" d="M802.37,648.353s1.372,12.341,4.342,17.136a33.269,33.269,0,0,1,.913,3.883s.686,8.452,1.6,10.963,1.6,9.37,1.6,9.37,3.2,3.651,4.342.686a48.139,48.139,0,0,1-.686-11.881,17.892,17.892,0,0,0-.913-6.627,12.394,12.394,0,0,1,0-4.336c.453-1.831-1.831-10.736-1.831-10.736l-1.825-8.911Z" transform="translate(-366.187 -365.967)" fill="#be6f72"/>
    <path id="Path_174" data-name="Path 174" d="M817.689,722.435s-1.372,2.511-9.365,3.424c-4.15.471-4.179-.279-3.244-1.116a14.468,14.468,0,0,1,2.558-1.628s2.97-2.052,3.424-3.424,2.058-.227,2.058-.227c2.284,3.424,2.744-.918,3.2-.459a10.309,10.309,0,0,1,1.052,2.447C817.561,722,817.689,722.435,817.689,722.435Z" transform="translate(-367.113 -395.725)" fill="#ff6f61"/>
    <path id="Path_175" data-name="Path 175" d="M817.689,724.222s-1.372,2.511-9.365,3.424c-4.15.471-4.179-.279-3.244-1.116.651.413,1.965.581,4.61-.483,3.807-1.558,6.569-2.459,7.679-2.808C817.561,723.792,817.689,724.222,817.689,724.222Z" transform="translate(-367.113 -397.513)" opacity="0.1"/>
    <path id="Path_176" data-name="Path 176" d="M818.77,678.511a17.893,17.893,0,0,0-.913-6.627,12.392,12.392,0,0,1,0-4.336c.453-1.831-1.831-10.736-1.831-10.736L814.2,647.9l-1.581.093,1.808,8.818s2.284,8.905,1.831,10.736a12.392,12.392,0,0,0,0,4.336,17.371,17.371,0,0,1,.913,6.627,48.139,48.139,0,0,0,.686,11.882,2,2,0,0,1-.663.942,1.493,1.493,0,0,0,2.261-.942A48.149,48.149,0,0,1,818.77,678.511Z" transform="translate(-370.479 -365.967)" opacity="0.1"/>
    <path id="Path_177" data-name="Path 177" d="M809.12,562.42a8.138,8.138,0,0,0-4.313,1.227,7.76,7.76,0,0,0-8.719,4.156,9.463,9.463,0,0,0-2.959,7.068c0,4.86,3.273,8.795,7.307,8.795,2.906,0,5.453-2.069,6.621-5.063a8.022,8.022,0,0,0,2.058.267,8.225,8.225,0,0,0,0-16.451Z" transform="translate(-362.317 -330.176)" fill="#3f3d56"/>
    <path id="Path_178" data-name="Path 178" d="M825.633,650.65l.686,1.825s.686,12.108.453,13.253.918,5.232.918,5.232a29.244,29.244,0,0,1,1.6,12.788l.227,6.394s.913,2.511.459,2.97-3.9-.407-3.9-.407.459-4.8-1.163-7.766-2.511-10.51-2.511-10.51-2.284-4.569-2.284-6.394-3.656-16.677-3.656-16.677Z" transform="translate(-372.087 -367.119)" fill="#be6f72"/>
    <path id="Path_179" data-name="Path 179" d="M801.567,639.9s.233-8.225,1.163-10.736a17.046,17.046,0,0,0,1.017-3.645s13.829,2.5,14.974,1.587a19.844,19.844,0,0,0,.459,3.424,32.847,32.847,0,0,1,.913,8.684c-.25,2.744,0,2.738,0,2.738s-9.37,1.372-9.6,0-.913-1.366-.913-1.366S801.114,640.331,801.567,639.9Z" transform="translate(-365.844 -356.597)" fill="#3f3d56"/>
    <g id="Group_21" data-name="Group 21" transform="translate(435.723 270.51)" opacity="0.1">
      <path id="Path_180" data-name="Path 180" d="M809.119,649.921s-5.778-.157-7.522-.471v.471c-.453.453,8,.686,8,.686a.581.581,0,0,1,.314.128C809.6,649.921,809.119,649.921,809.119,649.921Z" transform="translate(-801.58 -637.127)"/>
      <path id="Path_181" data-name="Path 181" d="M825.544,631.674a19.832,19.832,0,0,1-.459-3.424.984.984,0,0,1-.389.14,11.55,11.55,0,0,0,.389,2.6,36.286,36.286,0,0,1,.913,8.685c-.25,2.744,0,2.738,0,2.738s-7.411,1.087-9.208.36a2.754,2.754,0,0,0,.07.326c.227,1.372,9.6,0,9.6,0s-.232,0,0-2.738A33.958,33.958,0,0,0,825.544,631.674Z" transform="translate(-807.948 -628.25)"/>
      <path id="Path_182" data-name="Path 182" d="M809.119,649.921s-5.778-.157-7.522-.471v.471c-.453.453,8,.686,8,.686a.581.581,0,0,1,.314.128C809.6,649.921,809.119,649.921,809.119,649.921Z" transform="translate(-801.58 -637.127)"/>
      <path id="Path_183" data-name="Path 183" d="M825.544,631.674a19.832,19.832,0,0,1-.459-3.424.984.984,0,0,1-.389.14,11.55,11.55,0,0,0,.389,2.6,36.286,36.286,0,0,1,.913,8.685c-.25,2.744,0,2.738,0,2.738s-7.411,1.087-9.208.36a2.754,2.754,0,0,0,.07.326c.227,1.372,9.6,0,9.6,0s-.232,0,0-2.738A33.958,33.958,0,0,0,825.544,631.674Z" transform="translate(-807.948 -628.25)"/>
    </g>
    <path id="Path_184" data-name="Path 184" d="M815.358,585.488a3.029,3.029,0,0,0,.872,1.128,1.953,1.953,0,0,0,.82.355c-.511.3-1.07.517-1.581.814a28.111,28.111,0,0,0-2.325,1.744,4.731,4.731,0,0,1-2.668,1.035,3.267,3.267,0,0,0,.372-3.249,3.034,3.034,0,0,1-.407-1.128,2.026,2.026,0,0,1,1.122-1.511c.436-.3.884-.581,1.337-.866.355-.221.889-.686,1.337-.669s.5.413.581.82A6.445,6.445,0,0,0,815.358,585.488Z" transform="translate(-369.566 -338.851)" fill="#be6f72"/>
    <path id="Path_185" data-name="Path 185" d="M815.358,585.488a3.029,3.029,0,0,0,.872,1.128,1.953,1.953,0,0,0,.82.355c-.511.3-1.07.517-1.581.814a28.111,28.111,0,0,0-2.325,1.744,4.731,4.731,0,0,1-2.668,1.035,3.267,3.267,0,0,0,.372-3.249,3.034,3.034,0,0,1-.407-1.128,2.026,2.026,0,0,1,1.122-1.511c.436-.3.884-.581,1.337-.866.355-.221.889-.686,1.337-.669s.5.413.581.82A6.445,6.445,0,0,0,815.358,585.488Z" transform="translate(-369.566 -338.851)" opacity="0.1"/>
    <circle id="Ellipse_54" data-name="Ellipse 54" cx="5.255" cy="5.255" r="5.255" transform="translate(445.89 249.607)" fill="#be6f72"/>
    <path id="Path_186" data-name="Path 186" d="M836.16,725.726c0,.459-.913,1.6-.913,1.6a11.312,11.312,0,0,1-5.482-.686c-.459-.227.227-1.6.227-1.6l.052-.11a5.547,5.547,0,0,1,.866-1.488,6.5,6.5,0,0,0,.727-2.325c1.418-2.325,3.935,1.006,3.935,1.006s.32,1.744.488,2.8A7.957,7.957,0,0,1,836.16,725.726Z" transform="translate(-377.592 -396.279)" fill="#ff6f61"/>
    <path id="Path_187" data-name="Path 187" d="M836.16,729.054c0,.459-.913,1.6-.913,1.6a11.312,11.312,0,0,1-5.482-.686c-.459-.227.227-1.6.227-1.6l.052-.11a11.044,11.044,0,0,0,4.976,1.023l1.041-1.041C836.12,728.63,836.16,728.938,836.16,729.054Z" transform="translate(-377.592 -399.607)" opacity="0.1"/>
    <circle id="Ellipse_55" data-name="Ellipse 55" cx="5.139" cy="5.139" r="5.139" transform="translate(435.497 238.754)" fill="#be6f72"/>
    <path id="Path_188" data-name="Path 188" d="M801.7,599.15c-1.128,1.075-1.314,2.779-1.43,4.331l-.174,2.273a11.468,11.468,0,0,0-.041,1.843c0,.378.093.762.128,1.163s.047.907.052,1.366v3.36a3.963,3.963,0,0,0,.372,2.017,1.372,1.372,0,0,0,1.744.628,1.988,1.988,0,0,0,.721-1.116,17.35,17.35,0,0,0,1.163-4.255c.047-.506.052-1.011.1-1.517s.134-1.035.209-1.546c.326-2.139.471-4.3.616-6.458.041-.639.616-3.156-.221-3.435-.407-.134-1.25.285-1.639.424a4.615,4.615,0,0,0-1.6.924Z" transform="translate(-365.21 -344.98)" fill="#be6f72"/>
    <path id="Path_189" data-name="Path 189" d="M801.7,599.15c-1.128,1.075-1.314,2.779-1.43,4.331l-.174,2.273a11.468,11.468,0,0,0-.041,1.843c0,.378.093.762.128,1.163s.047.907.052,1.366v3.36a3.963,3.963,0,0,0,.372,2.017,1.372,1.372,0,0,0,1.744.628,1.988,1.988,0,0,0,.721-1.116,17.35,17.35,0,0,0,1.163-4.255c.047-.506.052-1.011.1-1.517s.134-1.035.209-1.546c.326-2.139.471-4.3.616-6.458.041-.639.616-3.156-.221-3.435-.407-.134-1.25.285-1.639.424a4.615,4.615,0,0,0-1.6.924Z" transform="translate(-365.21 -344.98)" opacity="0.1"/>
    <path id="Path_190" data-name="Path 190" d="M814.212,588.16s-3.883,2.97-6.167,3.656c0,0-1.354,1.546-1.587,1.918s-.7,4.476-1.163,5.394-1.6,2.97,0,5.022a8.708,8.708,0,0,1,.227,2.744c-.227.686-1.058,3.2-.3,3.313s3.046,1.709,5.1,1.256,9.713,1.744,9.713,1.744,1.267-11.771,2.186-13.852l-2.058-.686s-5.708-3.424-2.284-8.679C817.869,589.991,814.66,589.305,814.212,588.16Z" transform="translate(-367.066 -340.954)" fill="#ff6f61"/>
    <path id="Path_191" data-name="Path 191" d="M796.735,610.764l4.72,3.342a.349.349,0,0,0,.413,0l1.279-.959a.36.36,0,0,0,0-.546l-3.633-3.226a.349.349,0,0,0-.355-.07l-2.331.837a.355.355,0,0,0-.093.622Z" transform="translate(-363.767 -349.798)" fill="#3f3d56"/>
    <path id="Path_192" data-name="Path 192" d="M799.143,622.671a12.649,12.649,0,0,1-.494-3.563l-.07-1.61a4.65,4.65,0,0,1,.169-1.86,3.04,3.04,0,0,1,1.959-1.715,6.765,6.765,0,0,1,2.668-.192.686.686,0,0,1,.343.093.639.639,0,0,1,.186.314,2.1,2.1,0,0,1,.1,1.68,1.744,1.744,0,0,1-.535.552c-.634.453-1.372.756-1.971,1.25a.714.714,0,0,0-.267.337.785.785,0,0,0,0,.366,5.863,5.863,0,0,0,.3.936.924.924,0,0,0,.262.4c.11.093.256.128.372.215.25.2.773.471.744.791a26.061,26.061,0,0,1-1.058,3.616C801.334,626.525,799.48,623.653,799.143,622.671Z" transform="translate(-364.588 -351.637)" fill="#be6f72"/>
    <g id="Group_22" data-name="Group 22" transform="translate(441.769 258.059)" opacity="0.1">
      <path id="Path_193" data-name="Path 193" d="M812.108,628.21h-.128a3.913,3.913,0,0,0,1.494,0h.145A5.234,5.234,0,0,0,812.108,628.21Z" transform="translate(-811.98 -615.759)"/>
      <path id="Path_194" data-name="Path 194" d="M831.214,606.83c-.82,1.843-2.029,11.823-2.244,13.806.8.209,1.331.36,1.331.36s1.256-11.742,2.174-13.823Z" transform="translate(-819.094 -606.83)"/>
    </g>
    <path id="Path_195" data-name="Path 195" d="M821.506,597.1a1.744,1.744,0,0,0,.75,1.133,10.07,10.07,0,0,1,1.331,1.349,9.549,9.549,0,0,1,1.32,2.645,32.419,32.419,0,0,1,1.1,3.616c-2.906,1.349-6.208,1.285-9.3,2.174a7.422,7.422,0,0,0-3.488,2.064,4.807,4.807,0,0,0-1.285,3.784.493.493,0,0,0,.07.227.488.488,0,0,0,.407.163,3.487,3.487,0,0,0,2.133-.732,10.146,10.146,0,0,0,1.633-1.6,2.628,2.628,0,0,1,1.163-.86,19.026,19.026,0,0,1,5.232-.512,65.924,65.924,0,0,0,7.8-.616.628.628,0,0,0,.7-.7c.256-3.43-1.017-6.778-2.325-9.958q-.785-1.912-1.616-3.807a11.276,11.276,0,0,0-1.976-3.383,3.486,3.486,0,0,0-1.162-.86,4.917,4.917,0,0,0-1.558-.291,11.046,11.046,0,0,0-2.552-.046,5.438,5.438,0,0,0-.244,1.32,11.43,11.43,0,0,0,1.407,4.458C821.122,596.875,821.372,596.887,821.506,597.1Z" transform="translate(-370.181 -342.072)" fill="#be6f72"/>
    <path id="Path_196" data-name="Path 196" d="M811.991,606.67a4.26,4.26,0,0,0-.581,2.221,2.988,2.988,0,0,0,.145.907,2.941,2.941,0,0,0,1.854,1.744" transform="translate(-369.972 -348.704)" fill="none" stroke="#000" stroke-miterlimit="10" stroke-width="1" opacity="0.1"/>
    <path id="Path_197" data-name="Path 197" d="M809.921,572.5a2.668,2.668,0,0,0-.843.134,5.573,5.573,0,0,0-4.65-1.965c-2.779,0-5.028,1.436-5.028,3.2s2.25,3.2,5.028,3.2a7.074,7.074,0,0,0,3.017-.639,2.738,2.738,0,1,0,2.465-3.93Z" transform="translate(-364.944 -333.631)" fill="#3f3d56"/>
    <path id="Path_198" data-name="Path 198" d="M810.14,578.879a2.732,2.732,0,0,1-2.465-1.553,7.074,7.074,0,0,1-3.017.64c-2.773,0-5.022-1.43-5.022-3.2a1.915,1.915,0,0,1,0-.32,2.168,2.168,0,0,0-.256,1.006c0,1.744,2.25,3.2,5.028,3.2a7.074,7.074,0,0,0,3.017-.639,2.738,2.738,0,0,0,5.156-.68A2.726,2.726,0,0,1,810.14,578.879Z" transform="translate(-364.935 -335.213)" opacity="0.1"/>
    <path id="Path_199" data-name="Path 199" d="M796.076,569.152A7.76,7.76,0,0,1,804.8,565a8.22,8.22,0,0,1,12.509,6.313v-.686a8.219,8.219,0,0,0-12.538-6.975,7.76,7.76,0,0,0-8.719,4.156,9.464,9.464,0,0,0-2.959,7.068v.686A9.3,9.3,0,0,1,796.076,569.152Z" transform="translate(-362.3 -330.176)" opacity="0.1"/>
    <path id="Path_200" data-name="Path 200" d="M883.691,532.42c1.517-2.808-.2-6.255-2.186-8.76s-4.389-5.11-4.336-8.307c.07-4.586,4.941-7.3,8.836-9.731a42.96,42.96,0,0,0,7.929-6.394,11.584,11.584,0,0,0,2.441-3.261,13.4,13.4,0,0,0,.732-5.813q-.256-9.824-.971-19.624" transform="translate(-397.506 -291.701)" fill="none" stroke="#3f3d56" stroke-miterlimit="10" stroke-width="4"/>
    <path id="Path_201" data-name="Path 201" d="M912.217,465.017a7.144,7.144,0,0,0-3.569-5.859l-1.6,3.168.047-3.837a7.021,7.021,0,0,0-2.354-.285,7.156,7.156,0,1,0,7.481,6.813Z" transform="translate(-406.192 -286.536)" fill="#6c63ff"/>
    <path id="Path_202" data-name="Path 202" d="M890.832,545.749a7.156,7.156,0,1,1,.343-5.766l-4.47,3.639,4.918-1.163A7.115,7.115,0,0,1,890.832,545.749Z" transform="translate(-397.566 -318.829)" fill="#6c63ff"/>
    <path id="Path_203" data-name="Path 203" d="M889.088,519.048a7.156,7.156,0,0,1-2.273-14.038l-.035,2.947,1.622-3.2h0a7.158,7.158,0,1,1,.668,14.3Z" transform="translate(-399.356 -306.028)" fill="#6c63ff"/>
    <path id="Path_204" data-name="Path 204" d="M918.953,499.168a7.156,7.156,0,1,1,3.168-13.37l-1.267,3.488,2.6-2.5a7.115,7.115,0,0,1,2.325,4.941,6.91,6.91,0,0,1-.18,1.971A7.156,7.156,0,0,1,918.953,499.168Z" transform="translate(-411.853 -297.703)" fill="#6c63ff"/>
    <path id="Path_205" data-name="Path 205" d="M911.252,469.747c-1.651.186-3.261.7-4.918.8a5.331,5.331,0,0,1-4.528-1.587,22.206,22.206,0,0,1-1.32-2.325,5.145,5.145,0,0,0-1.8-1.7,7.156,7.156,0,1,0,13.37,4.749C911.787,469.7,911.52,469.718,911.252,469.747Z" transform="translate(-406.187 -289.36)" opacity="0.1"/>
    <path id="Path_206" data-name="Path 206" d="M918.974,502.117a7.161,7.161,0,0,1-6.807-10.207,5.294,5.294,0,0,1,1.442,1.436,22.929,22.929,0,0,0,1.418,2.366,5.822,5.822,0,0,0,4.743,1.662c1.726-.081,3.395-.581,5.115-.727.238,0,.483-.041.721-.046a7.156,7.156,0,0,1-6.632,5.516Z" transform="translate(-411.874 -300.653)" opacity="0.1"/>
    <path id="Path_207" data-name="Path 207" d="M889.088,522.085A7.15,7.15,0,0,1,882.223,512a5.9,5.9,0,0,1,1.511,1.453c.581.785.9,1.692,1.552,2.412a6.624,6.624,0,0,0,5.069,1.779c1.831-.041,3.488-.477,5.232-.61A7.156,7.156,0,0,1,889.088,522.085Z" transform="translate(-399.357 -309.065)" opacity="0.1"/>
    <path id="Path_208" data-name="Path 208" d="M890.861,549.073a7.162,7.162,0,0,1-13.05-5.813,7.012,7.012,0,0,1,1.57,1.4c.686.831,1.134,1.744,1.918,2.546a8.988,8.988,0,0,0,5.929,2.081,31.357,31.357,0,0,0,3.633-.215Z" transform="translate(-397.595 -322.154)" opacity="0.1"/>
    <path id="Path_209" data-name="Path 209" d="M1042.691,684.42c1.517-2.808-.2-6.255-2.186-8.76s-4.389-5.109-4.336-8.307c.07-4.586,4.941-7.3,8.836-9.731a42.967,42.967,0,0,0,7.929-6.394,11.585,11.585,0,0,0,2.441-3.261,13.4,13.4,0,0,0,.732-5.813q-.25-9.824-.971-19.624" transform="translate(-464.081 -355.345)" fill="none" stroke="#3f3d56" stroke-miterlimit="10" stroke-width="4"/>
    <path id="Path_210" data-name="Path 210" d="M1071.238,617.017a7.144,7.144,0,0,0-3.569-5.859l-1.6,3.168.047-3.836a7.021,7.021,0,0,0-2.325-.285,7.156,7.156,0,1,0,7.481,6.813Z" transform="translate(-472.788 -350.181)" fill="#6c63ff"/>
    <path id="Path_211" data-name="Path 211" d="M1049.832,697.749a7.156,7.156,0,1,1,.343-5.766l-4.47,3.639,4.918-1.163A7.112,7.112,0,0,1,1049.832,697.749Z" transform="translate(-464.141 -382.473)" fill="#6c63ff"/>
    <path id="Path_212" data-name="Path 212" d="M1048.088,671.048a7.156,7.156,0,0,1-2.273-14.038l-.035,2.947,1.622-3.2h0a7.158,7.158,0,1,1,.668,14.3Z" transform="translate(-465.931 -369.672)" fill="#6c63ff"/>
    <path id="Path_213" data-name="Path 213" d="M1077.953,651.168a7.156,7.156,0,1,1,3.168-13.37l-1.267,3.488,2.6-2.5a7.116,7.116,0,0,1,2.325,4.941,6.914,6.914,0,0,1-.18,1.971A7.156,7.156,0,0,1,1077.953,651.168Z" transform="translate(-478.428 -361.347)" fill="#6c63ff"/>
    <path id="Path_214" data-name="Path 214" d="M1070.252,621.747c-1.651.186-3.261.7-4.918.8a5.331,5.331,0,0,1-4.528-1.587,22.21,22.21,0,0,1-1.319-2.325,5.142,5.142,0,0,0-1.8-1.7,7.156,7.156,0,1,0,13.37,4.749C1070.787,621.7,1070.52,621.718,1070.252,621.747Z" transform="translate(-472.762 -353.004)" opacity="0.1"/>
    <path id="Path_215" data-name="Path 215" d="M1077.975,654.117a7.161,7.161,0,0,1-6.807-10.207,5.3,5.3,0,0,1,1.441,1.436,22.976,22.976,0,0,0,1.418,2.366,5.822,5.822,0,0,0,4.743,1.662c1.726-.081,3.395-.581,5.115-.727.238,0,.482-.041.721-.047A7.155,7.155,0,0,1,1077.975,654.117Z" transform="translate(-478.449 -364.297)" opacity="0.1"/>
    <path id="Path_216" data-name="Path 216" d="M1048.088,674.085A7.15,7.15,0,0,1,1041.223,664a5.9,5.9,0,0,1,1.511,1.453c.581.785.9,1.692,1.552,2.412a6.624,6.624,0,0,0,5.069,1.779c1.831-.041,3.488-.477,5.232-.61A7.156,7.156,0,0,1,1048.088,674.085Z" transform="translate(-465.932 -372.709)" opacity="0.1"/>
    <path id="Path_217" data-name="Path 217" d="M1049.861,701.073a7.162,7.162,0,0,1-13.05-5.813,7.013,7.013,0,0,1,1.569,1.4c.686.831,1.163,1.744,1.918,2.546a8.988,8.988,0,0,0,5.929,2.081,31.37,31.37,0,0,0,3.633-.215Z" transform="translate(-464.17 -385.798)" opacity="0.1"/>
    <path id="Path_218" data-name="Path 218" d="M473.861,576.153a5.7,5.7,0,0,0-2.273-4.6A6.685,6.685,0,0,0,466,564.992a6.673,6.673,0,0,0-4.447-4.97h0a5.676,5.676,0,0,0-.825-.192h-.982a6.545,6.545,0,0,0-6.324,5.592c-2.04-.471-3.906.139-4.249,1.43a1.744,1.744,0,0,0,.058,1.035,4.5,4.5,0,0,0,3,2.43l.2.058.3.076h.064a5.139,5.139,0,0,0-.488,2.2,5.08,5.08,0,0,0,2.738,4.534l-.134.081a1.813,1.813,0,0,0-.442.616,9.219,9.219,0,0,0-.854,2.058c-.145.616-.169,1.256-.349,1.866-.337,1.122-1.2,2.069-1.3,3.238-.046.523.041,1.163-.331,1.5a1.807,1.807,0,0,1-.3.209,2.4,2.4,0,0,0-.645.68,2.255,2.255,0,0,1-.453.651c-.337.25-.889.227-1.052.616s.262.849.163,1.273-.459.506-.721.744a2.587,2.587,0,0,0-.622,1.163,3.813,3.813,0,0,1-3.139-.8,5.865,5.865,0,0,1,.326,1.163,5.091,5.091,0,0,0-1.692-.849,5.341,5.341,0,0,1-1.8-1.337l.965-.134-4.261-6.5-1.261-.262,1.128,2.168a.692.692,0,0,0-.384.459,1.97,1.97,0,0,0-.041.738,13.21,13.21,0,0,0,.291,1.744l.326,1.523c.029.139.064.285.1.424a4.006,4.006,0,0,0-1.261.14,10.977,10.977,0,0,0-2.622-.622,1.454,1.454,0,0,0-.581,0,1.506,1.506,0,0,0-.552.448,17.882,17.882,0,0,0-1.947,2.744c-2.325,3.988-5.354,7.47-8.219,11.074-1.976.8-3.97,1.564-5.964,2.325l-4.29,1.639a6.5,6.5,0,0,1-2.662.581c-.407,0-.913-.087-1.163.262a2.448,2.448,0,0,0-.262.581l-.442.047h0a5.08,5.08,0,0,0-1.029-1.9.651.651,0,0,0-.482.372c-.1.192-.169.4-.291.581-.227.337-.628.5-.913.785s-.465.727-.779,1.017a3.081,3.081,0,0,1-1.459.581,9.209,9.209,0,0,0-2.284.866,3.679,3.679,0,0,1-.843.389,3.168,3.168,0,0,1-.994.035l-2.267-.169a1.79,1.79,0,0,0-.61.029,1.163,1.163,0,0,0-.721,1.163,1.831,1.831,0,0,0,.721,1.25,4.617,4.617,0,0,0,1.29.669,37.875,37.875,0,0,0,6.045,1.79v.459a10.318,10.318,0,0,0,4.65,1.1.721.721,0,0,0,.349-.064.767.767,0,0,0,.291-.453,18.7,18.7,0,0,0,.907-4.453h0a2.325,2.325,0,0,0,.82-.209c.779-.215,1.558.32,2.366.407a6.464,6.464,0,0,0,2.854-.825l.407-.134a4.463,4.463,0,0,1-.942.9c-.39.279-.825.488-1.2.779a8.29,8.29,0,0,1-1.023.791,6.422,6.422,0,0,1-.785.3,5.178,5.178,0,0,0-1.122.581,2.272,2.272,0,0,0-.761.744,1.116,1.116,0,0,0-.064,1.046,1.1,1.1,0,0,0,.75.523,3.079,3.079,0,0,0,.924,0c1.232-.093,2.459-.2,3.685-.314a9.83,9.83,0,0,0,1.54-.221c.267-.064.535-.151.8-.227a7.152,7.152,0,0,1,1.4-.209,1.162,1.162,0,0,1,.407.041c.285.093.488.384.779.442a1.162,1.162,0,0,0,.581-.076,12.963,12.963,0,0,1,2.726-.291,1.125,1.125,0,0,0,1.058-.471c.186-.372-.151-.971-.3-1.465a4.483,4.483,0,0,1-.128-.965,6.04,6.04,0,0,0-.674-2.29,5.974,5.974,0,0,1-.506-1.046,26.436,26.436,0,0,0,5.017-2.546,8.969,8.969,0,0,1,2.86-1.378,7.778,7.778,0,0,1,3.592.418,81.728,81.728,0,0,1,8.237,2.872c1.285.529,2.563,1.087,3.889,1.488a6.063,6.063,0,0,0,1.383,1.343,6.394,6.394,0,0,0,2.994.82,39.231,39.231,0,0,0,4.214.157,7.109,7.109,0,0,0,3.139-.581,3.226,3.226,0,0,0,.657-.436,2.6,2.6,0,0,0,2.069-.761,5.017,5.017,0,0,0,1.575-2.488c.343-1.325.081-2.906.9-3.964.215-.291.5-.523.715-.814a2.29,2.29,0,0,0,.372-1.343.27.27,0,0,1,.035-.052,4.924,4.924,0,0,0,.349-1.337,7.642,7.642,0,0,1,.378-1.058,32.659,32.659,0,0,0,1.081-3.133,18.3,18.3,0,0,0,.5-2.151c.087-.581.139-1.163.186-1.744a10.832,10.832,0,0,1,.529-2.691,21.9,21.9,0,0,0,1.221-6.441v-.128a4.319,4.319,0,0,0,3.825-4.395,4.586,4.586,0,0,0-.4-1.878,5.812,5.812,0,0,0,.779-2.93Zm-20.8,25.269c.064.227.139.448.215.668-.343-.331-.674-.674-1.017-1.011.134.047.273.087.4.14a2.163,2.163,0,0,1,.384.2Zm-1.645-1.116c-2.011-1.744-4.336-3.1-6.394-4.79,1.122.552,2.215,1.2,3.3,1.814q1.924,1.1,3.9,2.11a3.192,3.192,0,0,1-.82.866Zm.854-4.395.1-.1v.692l-.541-.186a4.818,4.818,0,0,0,.424-.407Zm-17.689,4.708a16.642,16.642,0,0,0,2.139-3.052,20.544,20.544,0,0,0,3.191,3.563C438.141,600.9,436.362,600.712,434.583,600.619Z" transform="translate(-196.005 -329.092)" fill="url(#linear-gradient-2)"/>
    <path id="Path_219" data-name="Path 219" d="M415.35,438.25l1.267.256,4.319,6.388-1.9.256Z" transform="translate(-173.911 -183.65)" fill="#2f2e41"/>
    <path id="Path_220" data-name="Path 220" d="M414.49,645.414a24.871,24.871,0,0,0,1.267,3.3,31.4,31.4,0,0,0,4.214-1.2,13.279,13.279,0,0,0-.878-1.163,4.334,4.334,0,0,0-1.192-.913,3.278,3.278,0,0,0-1.447,0C415.8,645.414,415.147,645.426,414.49,645.414Z" transform="translate(-203.778 -364.9)" fill="#fbbebe"/>
    <path id="Path_221" data-name="Path 221" d="M410.086,645.8a2.628,2.628,0,0,1-1.442-1.639,5.279,5.279,0,0,0-1.1-1.959.628.628,0,0,0-.488.366c-.1.186-.169.4-.285.581-.233.331-.639.494-.93.773s-.465.715-.779,1a3.091,3.091,0,0,1-1.471.581,9.534,9.534,0,0,0-2.325.854,4.015,4.015,0,0,1-.854.384,3.384,3.384,0,0,1-1,0l-2.29-.163a1.793,1.793,0,0,0-.581,0,1.11,1.11,0,0,0-.727,1.163,1.744,1.744,0,0,0,.727,1.232,4.826,4.826,0,0,0,1.3.663,38.309,38.309,0,0,0,6.138,1.744v.453a10.625,10.625,0,0,0,4.679,1.087.791.791,0,0,0,.349-.058.767.767,0,0,0,.291-.453,18.137,18.137,0,0,0,.959-4.976,3.964,3.964,0,0,0-.1-1.285c-.128-.413.3-.238-.093-.4" transform="translate(-195.956 -363.581)" fill="#2f2e41"/>
    <path id="Path_222" data-name="Path 222" d="M463.456,632.235c-6.789.407-13.5-1.581-20.3-1.79a9.909,9.909,0,0,0-2.523.157,12.707,12.707,0,0,0-2.5.971c-3.645,1.7-7.417,3.1-11.184,4.505l-4.331,1.61a6.558,6.558,0,0,1-2.68.581c-.413,0-.918-.087-1.163.256-.7,1.046-.372,2.575.093,3.749.151.378.407.791.814.831a2.367,2.367,0,0,0,.825-.209c.785-.209,1.569.32,2.383.407a6.7,6.7,0,0,0,2.877-.814,24.967,24.967,0,0,1,4.929-.837,22.087,22.087,0,0,0,7.72-3.2,9.009,9.009,0,0,1,2.877-1.36,7.963,7.963,0,0,1,3.621.413,83.108,83.108,0,0,1,8.307,2.825,38.716,38.716,0,0,0,4.336,1.587,15.7,15.7,0,0,0,9.725-.581c1.087-.43,2.267-1.163,2.325-2.36.041-.668-.482-1.256-.825-1.831-.221-.366-.448-.732-.686-1.087C466.938,634.368,465.52,632.113,463.456,632.235Z" transform="translate(-205.404 -358.65)" fill="#2f2e41"/>
    <path id="Path_223" data-name="Path 223" d="M463.456,632.235c-6.789.407-13.5-1.581-20.3-1.79a9.909,9.909,0,0,0-2.523.157,12.707,12.707,0,0,0-2.5.971c-3.645,1.7-7.417,3.1-11.184,4.505l-4.331,1.61a6.558,6.558,0,0,1-2.68.581c-.413,0-.918-.087-1.163.256-.7,1.046-.372,2.575.093,3.749.151.378.407.791.814.831a2.367,2.367,0,0,0,.825-.209c.785-.209,1.569.32,2.383.407a6.7,6.7,0,0,0,2.877-.814,24.967,24.967,0,0,1,4.929-.837,22.087,22.087,0,0,0,7.72-3.2,9.009,9.009,0,0,1,2.877-1.36,7.963,7.963,0,0,1,3.621.413,83.108,83.108,0,0,1,8.307,2.825,38.716,38.716,0,0,0,4.336,1.587,15.7,15.7,0,0,0,9.725-.581c1.087-.43,2.267-1.163,2.325-2.36.041-.668-.482-1.256-.825-1.831-.221-.366-.448-.732-.686-1.087C466.938,634.368,465.52,632.113,463.456,632.235Z" transform="translate(-205.404 -358.65)" opacity="0.1"/>
    <path id="Path_224" data-name="Path 224" d="M436.92,643.964q1.593.541,3.215,1c.581-.994,1.744-1.686,1.994-2.825a.267.267,0,0,0,0-.151.279.279,0,0,0-.122-.11,6.092,6.092,0,0,0-2.523-.738c-.7-.041-1.017.686-1.331,1.2C438.03,642.563,437.2,644.074,436.92,643.964Z" transform="translate(-213.17 -363.136)" fill="#fbbebe"/>
    <path id="Path_225" data-name="Path 225" d="M431.917,643.618a2.325,2.325,0,0,1-1.564-1.029c-.145-.262-.308-.616-.61-.581s-.4.349-.465.622a17.441,17.441,0,0,1-.878,3.017,5.662,5.662,0,0,1-1.878,2.47c-.4.273-.831.477-1.221.767a8.386,8.386,0,0,1-1.029.779,6.11,6.11,0,0,1-.791.291,5.483,5.483,0,0,0-1.128.581,2.238,2.238,0,0,0-.773.738,1.064,1.064,0,0,0-.058,1.029,1.1,1.1,0,0,0,.75.512,3.16,3.16,0,0,0,.936,0c1.238-.087,2.476-.2,3.714-.308a10.733,10.733,0,0,0,1.552-.215l.808-.221a6.432,6.432,0,0,1,1.413-.209,1.1,1.1,0,0,1,.413.041c.285.093.488.378.785.436a1.314,1.314,0,0,0,.581-.076,12.833,12.833,0,0,1,2.75-.285,1.16,1.16,0,0,0,1.07-.465c.233-.453-.151-.959-.308-1.447a4.65,4.65,0,0,1-.128-.948,5.778,5.778,0,0,0-.68-2.255c-.314-.581-.744-1.221-.523-1.837a1.744,1.744,0,0,0,.209-.634C434.777,643.392,432.487,643.746,431.917,643.618Z" transform="translate(-206.679 -363.5)" fill="#2f2e41"/>
    <path id="Path_226" data-name="Path 226" d="M474.3,610.5a5.3,5.3,0,0,1-2.709-2.686c-.11-.256-.2-.529-.314-.785a5.965,5.965,0,0,0-1.616-2.25.8.8,0,0,0-.581-.25.633.633,0,0,0-.436.471,1.8,1.8,0,0,0-.047.727,12.948,12.948,0,0,0,.291,1.7l.331,1.5a3.292,3.292,0,0,0,.2.668,2.325,2.325,0,0,0,.552.657c.3.279.61.546.918.814a3.155,3.155,0,0,0,.581.4,3.38,3.38,0,0,0,1.029.3,8.754,8.754,0,0,1,3.86,1.488s0-1.006,0-1.116a1.476,1.476,0,0,0-.291-.808,5.155,5.155,0,0,0-1.773-.831Z" transform="translate(-226.426 -347.808)" fill="#fbbebe"/>
    <path id="Path_227" data-name="Path 227" d="M474.3,610.5a5.3,5.3,0,0,1-2.709-2.686c-.11-.256-.2-.529-.314-.785a5.965,5.965,0,0,0-1.616-2.25.8.8,0,0,0-.581-.25.633.633,0,0,0-.436.471,1.8,1.8,0,0,0-.047.727,12.948,12.948,0,0,0,.291,1.7l.331,1.5a3.292,3.292,0,0,0,.2.668,2.325,2.325,0,0,0,.552.657c.3.279.61.546.918.814a3.155,3.155,0,0,0,.581.4,3.38,3.38,0,0,0,1.029.3,8.754,8.754,0,0,1,3.86,1.488s0-1.006,0-1.116a1.476,1.476,0,0,0-.291-.808,5.155,5.155,0,0,0-1.773-.831Z" transform="translate(-226.426 -347.808)" opacity="0.1"/>
    <ellipse id="Ellipse_56" data-name="Ellipse 56" cx="1.651" cy="1.662" rx="1.651" ry="1.662" transform="translate(260.046 247.892)" fill="#2f2e41"/>
    <path id="Path_228" data-name="Path 228" d="M492.212,590.444a1.785,1.785,0,0,0-1.3.186,1.809,1.809,0,0,0-.448.61,8.866,8.866,0,0,0-.86,2.023c-.145.581-.169,1.238-.355,1.837-.337,1.1-1.2,2.04-1.3,3.191-.047.517.041,1.122-.337,1.471a2.141,2.141,0,0,1-.3.215,2.232,2.232,0,0,0-.651.668,2.193,2.193,0,0,1-.459.634c-.337.25-.9.227-1.058.581s.262.837.163,1.256-.465.5-.727.732a2.54,2.54,0,0,0-.628,1.163,3.877,3.877,0,0,1-3.162-.785,10.068,10.068,0,0,1,.494,3.616,1.477,1.477,0,0,1-.291,1.116,20.133,20.133,0,0,1,3.877.674,2.674,2.674,0,0,0,1.692,0,2.825,2.825,0,0,0,.779-.616,4.966,4.966,0,0,0,1.6-2.465,14.475,14.475,0,0,0,.029-1.668,9.408,9.408,0,0,1,.424-2.029,24.137,24.137,0,0,0,.738-4.174c.076-.872.831-1.57,1.226-2.325a11.385,11.385,0,0,0,1.564-4.65C492.945,591.171,492.759,590.5,492.212,590.444Z" transform="translate(-231.539 -341.89)" fill="#2f2e41"/>
    <path id="Path_229" data-name="Path 229" d="M492.212,590.444a1.785,1.785,0,0,0-1.3.186,1.809,1.809,0,0,0-.448.61,8.866,8.866,0,0,0-.86,2.023c-.145.581-.169,1.238-.355,1.837-.337,1.1-1.2,2.04-1.3,3.191-.047.517.041,1.122-.337,1.471a2.141,2.141,0,0,1-.3.215,2.232,2.232,0,0,0-.651.668,2.193,2.193,0,0,1-.459.634c-.337.25-.9.227-1.058.581s.262.837.163,1.256-.465.5-.727.732a2.54,2.54,0,0,0-.628,1.163,3.877,3.877,0,0,1-3.162-.785,10.068,10.068,0,0,1,.494,3.616,1.477,1.477,0,0,1-.291,1.116,20.133,20.133,0,0,1,3.877.674,2.674,2.674,0,0,0,1.692,0,2.825,2.825,0,0,0,.779-.616,4.966,4.966,0,0,0,1.6-2.465,14.475,14.475,0,0,0,.029-1.668,9.408,9.408,0,0,1,.424-2.029,24.137,24.137,0,0,0,.738-4.174c.076-.872.831-1.57,1.226-2.325a11.385,11.385,0,0,0,1.564-4.65C492.945,591.171,492.759,590.5,492.212,590.444Z" transform="translate(-231.539 -341.89)" opacity="0.1"/>
    <path id="Path_230" data-name="Path 230" d="M473.359,625.927a15.322,15.322,0,0,1-3.592-3c-2.18-2.052-4.848-3.488-7.144-5.423a50.348,50.348,0,0,0-4.551-3.825,11.375,11.375,0,0,0-4.877-1.7,1.3,1.3,0,0,0-.581,0,1.337,1.337,0,0,0-.552.436,17.563,17.563,0,0,0-1.971,2.7c-2.906,4.941-7.039,9.091-10.463,13.684a.873.873,0,0,0-.169.326.808.808,0,0,0,.128.506l.7,1.36c.389.767,1.017,1.657,1.854,1.506a2.029,2.029,0,0,0,.971-.622l3.127-2.994,3.278-3.133a25.147,25.147,0,0,0,5.127-6.057c.977,1.7,2.715,2.808,3.9,4.36.453.581.825,1.238,1.232,1.866.645,1,1.383,1.942,2.116,2.906l3.761,4.8a7.2,7.2,0,0,0,1.744,1.744,6.656,6.656,0,0,0,3.017.808,39.864,39.864,0,0,0,4.249.151,7.326,7.326,0,0,0,3.168-.581,2.871,2.871,0,0,0,1.715-2.552A3.744,3.744,0,0,0,479,631.6,12.955,12.955,0,0,0,473.359,625.927Z" transform="translate(-214.231 -350.912)" fill="#2f2e41"/>
    <ellipse id="Ellipse_57" data-name="Ellipse 57" cx="1.273" cy="1.279" rx="1.273" ry="1.279" transform="translate(261.441 249.427)" fill="#e8e8f0"/>
    <path id="Path_231" data-name="Path 231" d="M502.214,589.653a2.447,2.447,0,0,1,.139,1.837,7.452,7.452,0,0,1-.82,1.692,8.053,8.053,0,0,1-1.064,1.511,10.949,10.949,0,0,0,5.592-1.6,8.12,8.12,0,0,0,3.528-3.075,1.628,1.628,0,0,1-1.3-.244,4.651,4.651,0,0,1-.994-.924l-.982-1.1a4.424,4.424,0,0,1-.581-.8,2.2,2.2,0,0,1-.262-1.285,7.482,7.482,0,0,1-1.3,1.081c-.7.459-1.476.791-2.186,1.244-.244.163-.8.419-.657.744S502.016,589.3,502.214,589.653Z" transform="translate(-239.779 -339.907)" fill="#fbbebe"/>
    <path id="Path_232" data-name="Path 232" d="M502.214,589.653a2.447,2.447,0,0,1,.139,1.837,7.452,7.452,0,0,1-.82,1.692,8.053,8.053,0,0,1-1.064,1.511,10.949,10.949,0,0,0,5.592-1.6,8.12,8.12,0,0,0,3.528-3.075,1.628,1.628,0,0,1-1.3-.244,4.651,4.651,0,0,1-.994-.924l-.982-1.1a4.424,4.424,0,0,1-.581-.8,2.2,2.2,0,0,1-.262-1.285,7.482,7.482,0,0,1-1.3,1.081c-.7.459-1.476.791-2.186,1.244-.244.163-.8.419-.657.744S502.016,589.3,502.214,589.653Z" transform="translate(-239.779 -339.907)" opacity="0.1"/>
    <path id="Path_233" data-name="Path 233" d="M497.937,592.712a1.657,1.657,0,0,0,0,1.918c.058.07.267.506.355.512a.32.32,0,0,0,.221-.116,14.59,14.59,0,0,0,1.244-1.482,2.767,2.767,0,0,1,1.581-1.035,3.418,3.418,0,0,1,2.18.68,2.069,2.069,0,0,1,.75.581,2.029,2.029,0,0,1,.244.831,40.048,40.048,0,0,1,.221,5.284,20.822,20.822,0,0,1-.25,3.807c-.128.645-.314,1.279-.4,1.936a12.354,12.354,0,0,0-.081,1.744v2.43a6.393,6.393,0,0,0,.093,1.331c.116.529.366,1.023.535,1.54a10.075,10.075,0,0,1,.355,1.819l.331,2.511a3.175,3.175,0,0,1-.3,2.325c-.215.285-.5.517-.721.8-.82,1.07-.581,2.6-.9,3.906a4.871,4.871,0,0,1-1.593,2.441,2.633,2.633,0,0,1-2.1.75,2.875,2.875,0,0,1-1.912-2.261,9.041,9.041,0,0,0-.982-2.947,7.817,7.817,0,0,0-1.942-1.622,3.354,3.354,0,0,1-1.517-1.971c-.064-.366,0-.744-.064-1.116a2.633,2.633,0,0,0-1.622-2.133c-.523-.2-1.163-.279-1.465-.756a3.528,3.528,0,0,0,1.529-2.052,10.538,10.538,0,0,0,.372-2.593l.174-2.906a9.708,9.708,0,0,1,.692-3.773c.256-.523.581-1.017.843-1.535a16.658,16.658,0,0,0,.9-2.25c.419-1.2.837-2.395,1.209-3.6a6.79,6.79,0,0,1,.663-1.68C496.9,593.485,497.35,592.828,497.937,592.712Z" transform="translate(-235.479 -342.773)" fill="#e8e8f0"/>
    <path id="Path_234" data-name="Path 234" d="M492.3,611.305h.773l.163-1.163a2.423,2.423,0,0,1,.163-.68,4.07,4.07,0,0,1,.448-.651c.756-1.075.7-2.5.889-3.807a19.373,19.373,0,0,1,1.7-4.976l1.5-3.342a4.613,4.613,0,0,0,.326-.854,5.123,5.123,0,0,0,.093-.988c0-.517.163-2.4.18-2.906,0-.192-.424-.087-.512-.256-.186-.372-.442.634-.8.854a1.953,1.953,0,0,0-.692,1.011c-.326.837-.523,1.744-.825,2.575a5.261,5.261,0,0,1-1.4,2.279c-.308.267-.663.482-.953.773-.93.918-1.023,2.378-1.052,3.691C492.277,603.667,492.126,611.305,492.3,611.305Z" transform="translate(-236.323 -342.394)" fill="#2f2e41"/>
    <path id="Path_235" data-name="Path 235" d="M506.421,590.413a2.639,2.639,0,0,0-1.378,1.889,9.556,9.556,0,0,1-.7,2.325c-.942,1.639-3.342,2.116-4.011,3.889a7.15,7.15,0,0,0-.267,1.831c-.116,1.273-.535,2.5-.663,3.767a16.783,16.783,0,0,0,.07,2.959l.843,10.01a13.37,13.37,0,0,1-.25,4.406,4.244,4.244,0,0,0,2.523-.418c.785-.36,1.505-.855,2.267-1.273a23.357,23.357,0,0,0,3.889-2.186,2.378,2.378,0,0,0,.523-.581,5.026,5.026,0,0,0,.349-1.314,7.092,7.092,0,0,1,.378-1.035,30.487,30.487,0,0,0,1.093-3.092,17.761,17.761,0,0,0,.5-2.116c.093-.581.145-1.163.192-1.744a10.228,10.228,0,0,1,.535-2.645,21.305,21.305,0,0,0,1.227-6.348,3.32,3.32,0,0,0-.064-.93,4.98,4.98,0,0,0-.512-1.064c-.349-.657-.581-1.378-.884-2.046a10.062,10.062,0,0,0-3.435-3.61A2.616,2.616,0,0,0,506.421,590.413Z" transform="translate(-239.318 -341.864)" fill="#2f2e41"/>
    <path id="Path_236" data-name="Path 236" d="M474.734,616.139a6.063,6.063,0,0,1-1.6-1.215c-.209-.244-.384-.517-.581-.761A3.959,3.959,0,0,0,470.543,613a9.825,9.825,0,0,0-2.325-.227,4.219,4.219,0,0,0-1.552.186,1.581,1.581,0,0,0-1.029,1.1,1.831,1.831,0,0,0,.785,1.628,3.7,3.7,0,0,0,1.564.756,12.523,12.523,0,0,0,1.413.169c2.779.291,5.261,1.8,7.7,3.18q3.209,1.825,6.545,3.395a13.606,13.606,0,0,0,.11-2.005c0-.5-.041-1.267-.512-1.564a10.267,10.267,0,0,0-2.081-.622,32.768,32.768,0,0,1-4.191-1.7A20.86,20.86,0,0,1,474.734,616.139Z" transform="translate(-225.192 -351.256)" fill="#fbbebe"/>
    <ellipse id="Ellipse_58" data-name="Ellipse 58" cx="4.953" cy="4.982" rx="4.953" ry="4.982" transform="translate(256.744 239.214)" fill="#fbbebe"/>
    <path id="Path_237" data-name="Path 237" d="M505.134,599.725a7.939,7.939,0,0,0-.959,1.8c-.581,1.256-1.569,2.325-2.052,3.656s-.488,3.04-1.482,4.127a1.447,1.447,0,0,0-.436.628,3,3,0,0,1-.046.453c-.145.4-.791.413-.913.82-.035.116,0,.244-.058.36-.1.262-.448.3-.674.459-.482.326-.384,1.081-.727,1.552a1.308,1.308,0,0,1-1.238.436,4.36,4.36,0,0,1-1.285-.483,1.24,1.24,0,0,0-.465-.145.959.959,0,0,0-.535.186,3.3,3.3,0,0,0-1.337,2.819,9.207,9.207,0,0,0,.767,3.156,1.266,1.266,0,0,0,.25.471,1.11,1.11,0,0,0,1.232.093,5.81,5.81,0,0,1,1.2-.541c.767-.14,1.517.389,2.3.343a3.191,3.191,0,0,0,1.546-.68,8.546,8.546,0,0,0,2.081-1.744c.337-.448.581-.953.884-1.43a18.338,18.338,0,0,1,1.25-1.668l2.86-3.488a8.034,8.034,0,0,0,.767-1.058,7.46,7.46,0,0,0,.581-1.6,12.243,12.243,0,0,0,.581-2.843,10.917,10.917,0,0,0-.209-2.383,8.421,8.421,0,0,0-.581-2.273C507.814,599.435,506.3,598.365,505.134,599.725Z" transform="translate(-236.619 -345.532)" fill="#2f2e41"/>
    <path id="Path_238" data-name="Path 238" d="M513.089,577.358a5.58,5.58,0,0,0-2.29-4.534,6.632,6.632,0,0,0-5.633-6.458,6.435,6.435,0,0,0-12.678.343c-2.058-.465-3.941.14-4.284,1.407s1.11,2.906,3.278,3.488a6.108,6.108,0,0,0,2.1.209,6.441,6.441,0,0,0,4.429,2.761,6.609,6.609,0,0,0,4.836,4.987,5.551,5.551,0,0,0,1.494,2.064v.482a4.191,4.191,0,1,0,8.382,0,4.476,4.476,0,0,0-.4-1.854A5.6,5.6,0,0,0,513.089,577.358Z" transform="translate(-234.622 -329.663)" fill="#f86d70"/>
    <path id="Path_239" data-name="Path 239" d="M489.595,568.381c.343-1.267,2.226-1.872,4.284-1.407a6.545,6.545,0,0,1,6.394-5.511h.424a6.3,6.3,0,0,0-1.825-.273,6.545,6.545,0,0,0-6.394,5.511c-2.058-.465-3.941.14-4.284,1.407s1.11,2.906,3.279,3.488a6.393,6.393,0,0,0,1.244.215C490.641,571.188,489.252,569.677,489.595,568.381Z" transform="translate(-234.618 -329.661)" opacity="0.1"/>
    <path id="Path_240" data-name="Path 240" d="M509.724,590.154a4.365,4.365,0,0,1,0-.477,5.429,5.429,0,0,1-1.494-2.064,6.592,6.592,0,0,1-4.836-4.993,6.423,6.423,0,0,1-4.435-2.755,5.575,5.575,0,0,1-1.238-.035,6.458,6.458,0,0,0,4.272,2.54,6.609,6.609,0,0,0,4.836,4.987,5.552,5.552,0,0,0,1.494,2.064v.482a4.267,4.267,0,0,0,4.168,4.336A4.336,4.336,0,0,1,509.724,590.154Z" transform="translate(-238.627 -337.466)" opacity="0.1"/>
    <ellipse id="Ellipse_59" data-name="Ellipse 59" cx="0.761" cy="1.017" rx="0.761" ry="1.017" transform="translate(262.132 244.864) rotate(-37.22)" fill="#fbbebe"/>
  </g>
</svg>
