<svg xmlns="http://www.w3.org/2000/svg" width="834.848" height="600.521" viewBox="0 0 834.848 600.521">
  <g id="Group_63" data-name="Group 63" transform="translate(0 0.327)">
    <line id="Line_1" data-name="Line 1" x2="134.299" transform="translate(0 599.694)" fill="none" stroke="#3f3d56" stroke-miterlimit="10" stroke-width="1"/>
    <rect id="Rectangle_131" data-name="Rectangle 131" width="596.253" height="403.705" rx="19.398" transform="translate(196.594 103.356)" fill="#f2f2f2"/>
    <rect id="Rectangle_132" data-name="Rectangle 132" width="596.253" height="403.705" rx="19.398" transform="translate(178.391 77.871)" fill="none" stroke="#3f3d56" stroke-miterlimit="10" stroke-width="1"/>
    <line id="Line_2" data-name="Line 2" x2="596.253" transform="translate(178.391 116.575)" fill="none" stroke="#3f3d56" stroke-miterlimit="10" stroke-width="1"/>
    <rect id="Rectangle_133" data-name="Rectangle 133" width="162.614" height="25.08" rx="7.093" transform="translate(534.767 207.316)" fill="#6c63ff" opacity="0.3"/>
    <rect id="Rectangle_134" data-name="Rectangle 134" width="224.91" height="20.226" rx="7.093" transform="translate(503.619 276.892)" fill="#6c63ff" opacity="0.3"/>
    <rect id="Rectangle_135" data-name="Rectangle 135" width="224.91" height="20.226" rx="7.093" transform="translate(503.619 331.906)" fill="#6c63ff" opacity="0.3"/>
    <rect id="Rectangle_136" data-name="Rectangle 136" width="224.91" height="20.226" rx="7.093" transform="translate(503.619 386.92)" fill="#6c63ff" opacity="0.3"/>
    <rect id="Rectangle_137" data-name="Rectangle 137" width="162.614" height="25.08" rx="7.093" transform="translate(542.857 199.225)" fill="none" stroke="#3f3d56" stroke-miterlimit="10" stroke-width="1"/>
    <rect id="Rectangle_138" data-name="Rectangle 138" width="224.91" height="20.226" rx="7.093" transform="translate(511.71 268.802)" fill="none" stroke="#3f3d56" stroke-miterlimit="10" stroke-width="1"/>
    <rect id="Rectangle_139" data-name="Rectangle 139" width="224.91" height="20.226" rx="7.093" transform="translate(511.71 323.816)" fill="none" stroke="#3f3d56" stroke-miterlimit="10" stroke-width="1"/>
    <rect id="Rectangle_140" data-name="Rectangle 140" width="224.91" height="20.226" rx="7.093" transform="translate(511.71 378.829)" fill="none" stroke="#3f3d56" stroke-miterlimit="10" stroke-width="1"/>
    <circle id="Ellipse_85" data-name="Ellipse 85" cx="12.135" cy="12.135" r="12.135" transform="translate(211.561 90.007)" fill="#6c63ff" opacity="0.3"/>
    <circle id="Ellipse_86" data-name="Ellipse 86" cx="12.135" cy="12.135" r="12.135" transform="translate(245.54 90.007)" fill="#6c63ff" opacity="0.3"/>
    <circle id="Ellipse_87" data-name="Ellipse 87" cx="12.135" cy="12.135" r="12.135" transform="translate(279.519 90.007)" fill="#6c63ff" opacity="0.3"/>
    <circle id="Ellipse_88" data-name="Ellipse 88" cx="12.135" cy="12.135" r="12.135" transform="translate(216.415 85.153)" fill="none" stroke="#3f3d56" stroke-miterlimit="10" stroke-width="1"/>
    <circle id="Ellipse_89" data-name="Ellipse 89" cx="12.135" cy="12.135" r="12.135" transform="translate(250.394 85.153)" fill="none" stroke="#3f3d56" stroke-miterlimit="10" stroke-width="1"/>
    <circle id="Ellipse_90" data-name="Ellipse 90" cx="12.135" cy="12.135" r="12.135" transform="translate(284.373 85.153)" fill="none" stroke="#3f3d56" stroke-miterlimit="10" stroke-width="1"/>
    <path id="Path_291" data-name="Path 291" d="M530.532,634.405a120.629,120.629,0,0,1-1.887-31.035s-10.273-45.133-18.357-49.344l0,0c-.124.159-4.047,5.3-4.544,21.216-.505,16.167-6.229,26.776-6.229,26.776s1.852,20.151.793,32.384Z" transform="translate(-163.756 -169.819)" fill="#6c63ff"/>
    <path id="Path_292" data-name="Path 292" d="M581.677,298.379H395.232A19.232,19.232,0,0,0,376,317.611v248.74a19.232,19.232,0,0,0,19.232,19.232h65.414c-2.184-9.061-4.9-23.212-2.15-33.051v-.007l0,0c.128-.459.265-.912.417-1.351a51.37,51.37,0,0,0,1.854-19.7,40.945,40.945,0,0,0,0-17.177c-2.021-9.43-3.435-18.693-3.435-18.693s-1.114-12.461-.141-20.1c.021-.168.047-.327.07-.49l-.536-.123s2.863-12.967,3.873-21.219c.239-1.948.552-4.417.892-7.05a16.94,16.94,0,0,1-2.745-.7c-9.094-3.2-11.957-32.165-11.957-32.165v-9.177s-3.031-14.062,7.578-20.293c10.216-6,14.3-7.642,14.584-7.756.078-.056.154-.106.233-.168a8.948,8.948,0,0,0,2.661-3.425q.021-.347.01-.689c-.173-3.29-2.463-6.282-4.636-8.893l-5.561-6.68a6.533,6.533,0,0,1-1.432-2.318,5.344,5.344,0,0,1-.151-1.459q0-.273,0-.544.045-2.491.135-4.98c.052-1.45.417-3.279,1.837-3.577.739-.155,1.716.115,2.106-.53a1.266,1.266,0,0,0,.095-.858c0,.022-.006.044-.012.065,0-.027-.009-.054-.014-.081a18.156,18.156,0,0,1-.526-3.549,4.727,4.727,0,0,1,.228-1.594c.823-2.407,3.655-3.395,6.158-3.849s5.313-.845,6.883-2.845a21.813,21.813,0,0,1,1.366-1.92,5.364,5.364,0,0,1,2.561-1.292,14.156,14.156,0,0,1,9.309.826c1.211.552,2.427,1.3,3.755,1.212,1.379-.087,2.558-1.058,3.92-1.294,2.2-.382,4.3,1.267,5.387,3.219a7.97,7.97,0,0,1,1,4.064,5.592,5.592,0,0,1-1.427,3.836c-.947,1-2.359,1.694-2.752,3.017-.16.539-.123,1.119-.265,1.662-.018.068-.046.131-.07.2.026.034.054.066.08.1a17.176,17.176,0,0,1-8.359,26.714c-.006.17-.013.341-.012.512a7.421,7.421,0,0,0,2.3,5.716l15.005,6.153s9.033-1.095,12.293,12.386a23.317,23.317,0,0,1,.558,6.842,20.413,20.413,0,0,0,2.473,10.242c3.7,7.41,2.863,24.418-4.715,26.1-7.178,1.6-9.97.925-10.245.85l-.016.3c.118,3.191,1.254,30.718,5.378,34.049,1.14.921.922,1.543-.013,1.963l0,0s.008.177.025.5c.124,2.013.76,9.68,3.521,14.042,3.2,5.052,2.865,34.187,2.865,34.187l2.188,17.177s-1.346,10.609,0,12.461c.765,1.05,1.691,17.316,2.35,31.2h56.252a19.232,19.232,0,0,0,19.232-19.232V317.611a19.232,19.232,0,0,0-19.232-19.232Z" transform="translate(-140.169 -120.998)" fill="#6c63ff"/>
    <rect id="Rectangle_141" data-name="Rectangle 141" width="224.91" height="287.205" rx="23.772" transform="translate(216.415 155.538)" fill="none" stroke="#3f3d56" stroke-miterlimit="10" stroke-width="1"/>
    <path id="Path_293" data-name="Path 293" d="M183.067,400.536s-7.543-2.231-9.161.2,2.206,20.022,2.206,20.022l16.622,1.01-5.8-14.649Z" transform="translate(-101.498 -140.328)" fill="#2f2e41"/>
    <path id="Path_294" data-name="Path 294" d="M110.448,579.347s15.124,33.2,3.477,32.161-16.168-32.161-16.168-32.161Z" transform="translate(-87.032 -174.655)" fill="#a0616a"/>
    <path id="Path_295" data-name="Path 295" d="M235.245,574.346s-6.635,35.878,4.413,32.046,7.9-35.119,7.9-35.119Z" transform="translate(-112.911 -173.113)" fill="#a0616a"/>
    <path id="Path_296" data-name="Path 296" d="M173.632,389.03s-.174,16.689,6.258,17.558-3.651,9.735-3.651,9.735l-11.474,2.26-16.516-1.217-7.3-9.388s12.865-6.085,7.3-25.034Z" transform="translate(-95.28 -137.148)" fill="#a0616a"/>
    <path id="Path_297" data-name="Path 297" d="M173.632,389.03s-.174,16.689,6.258,17.558-3.651,9.735-3.651,9.735l-11.474,2.26-16.516-1.217-7.3-9.388s12.865-6.085,7.3-25.034Z" transform="translate(-95.28 -137.148)" opacity="0.1"/>
    <path id="Path_298" data-name="Path 298" d="M200.258,564.943S208.428,582.5,202,637.61c0,0,1.912,19.471.348,23.121s-14.429,53.2-14.429,53.2-16.515,3.651-18.775-7.3c0,0,2.26-15.646,2.086-18.08s3.651-29.032,3.651-29.032l-7.823-51.458-5.911,46.417s0,13.386-1.912,16.341,0,62.41,0,62.41,5.389,9.04-2.782,9.214-15.472-.174-16.168-5.911-1.043-11.474-2.782-14.951-4-43.287-3.477-57.2-11.474-85.358-7.649-92.833S200.258,564.943,200.258,564.943Z" transform="translate(-92.353 -171.898)" fill="#2f2e41"/>
    <circle id="Ellipse_91" data-name="Ellipse 91" cx="20.861" cy="20.861" r="20.861" transform="translate(48.624 216.418)" fill="#a0616a"/>
    <path id="Path_299" data-name="Path 299" d="M142.058,412.922s12.691,9.388,31.118,1.912c0,0,6.085-2.955,5.563-7.475s12.691,36.334,12.691,36.334l13.386,71.1-.7,29.032s-5.911-2.955-24.338,3.651-48.5-7.475-48.5-7.475l1.043-74.579,1.043-43.461,2.782-9.562S137.538,409.793,142.058,412.922Z" transform="translate(-93.434 -141.743)" fill="#f2f2f2"/>
    <path id="Path_300" data-name="Path 300" d="M182.063,399.889s3.071-.5,6.026,4.195S198,411.733,198,411.733s16.863,1.043,19.3,10.083,8.518,21.383,11.474,44.156,8.866,59.107,9.735,62.063-1.217,12,1.217,14.777-17.211,2.781-17.211,2.781-1.738-14.255-2.955-14.255-.869,9.561.348,16.515-8.866,0-8.866,0-7.823-31.814-15.3-60.5-11.821-44.5-10.43-50.936,5.215-24.86,2.434-26.6S182.063,399.889,182.063,399.889Z" transform="translate(-103.132 -140.38)" fill="#2f2e41"/>
    <path id="Path_301" data-name="Path 301" d="M139.327,399.874s-4.542,2.472-16.016,10.642-19.3,14.429-19.3,14.429-4.52,3.477-7.3,24.164-9.04,74.232-6.607,81.012,3.3,10.778,2.434,14.777,18.254,3.825,18.6,2.956-.522-16.689.348-17.037,5.563,9.388,6.432,17.558,10.952,14.6,13.212,14.6,13.908-47.112,14.081-79.273-3.825-59.281-6.78-63.106S139.327,399.874,139.327,399.874Z" transform="translate(-85.466 -140.38)" fill="#2f2e41"/>
    <path id="Path_302" data-name="Path 302" d="M185.216,746.423s1.391-3.825,6.258-2.608,8.171-3.129,8.171-3.129,2.608-.348.869,2.955-3.129,5.563-3.129,5.563,10.431,23.817,3.651,29.553-14.6,2.26-14.6,2.26-7.649-5.389-7.3-19.645c0,0-.348-4.52-4.52-11.821s-7.3-18.428-2.26-20.514,6.339-2.164,6.339-2.164-2.359,10.79,3.735,14.561Z" transform="translate(-100.78 -202.828)" fill="#3f3d56"/>
    <path id="Path_303" data-name="Path 303" d="M147.7,782.143s-4.172-7.823,2.782-8.692,14.429-1.391,14.081,2.26-1.217,9.214-1.217,9.214l1.217,4s.348,9.909,1.565,11.126,7.823,11.648-6.258,11.648-18.254-1.565-17.037-4.868,1.565-19.644,1.565-19.644Z" transform="translate(-95.602 -211.603)" fill="#3f3d56"/>
    <path id="Path_304" data-name="Path 304" d="M155.478,348.072s9.735,2.608,14.777,3.651,4.52-1.912,4.52-1.912,6.606.869,6.258.174,2.782-4.346-.869-8.518-2.608-7.3-2.608-7.3h-3.129l-.869-1.217H168.69s-3.651-1.391-13.212,0-22.6,1.738-23.643,7.475-6.432,12.865-4.52,16.168,12.865,16.863,13.908,22.6,5.913,7.011,5.738,3.419-5.043-16.109-.871-16.631S157.391,354.852,155.478,348.072Z" transform="translate(-92.599 -127.481)" fill="#2f2e41"/>
    <path id="Path_305" data-name="Path 305" d="M1015.268,86.584A18.593,18.593,0,0,0,999.242,97.79c-4.008,9.687,1.152,21.066,8.9,28.13s17.7,11.1,26.737,16.409c12.143,7.129,23.054,17.024,29.13,29.727s6.722,28.437-.42,40.573c-6.629,11.264-18.683,18-30.179,24.222" transform="translate(-258.925 -80.551)" fill="none" stroke="#3f3d56" stroke-miterlimit="10" stroke-width="1"/>
    <ellipse id="Ellipse_92" data-name="Ellipse 92" cx="14" cy="7" rx="14" ry="7" transform="translate(751.848 -0.327)" fill="#6c63ff"/>
    <ellipse id="Ellipse_93" data-name="Ellipse 93" cx="13.5" cy="7" rx="13.5" ry="7" transform="translate(763.848 45.673)" fill="#6c63ff"/>
    <ellipse id="Ellipse_94" data-name="Ellipse 94" cx="14" cy="7" rx="14" ry="7" transform="translate(737.848 52.673)" fill="#6c63ff"/>
    <ellipse id="Ellipse_95" data-name="Ellipse 95" cx="14.5" cy="7" rx="14.5" ry="7" transform="translate(777.848 89.673)" fill="#6c63ff"/>
    <ellipse id="Ellipse_96" data-name="Ellipse 96" cx="14" cy="7" rx="14" ry="7" transform="translate(806.848 89.673)" fill="#6c63ff"/>
  </g>
</svg>
