<svg xmlns="http://www.w3.org/2000/svg" width="541.5" height="327.881" viewBox="0 0 541.5 327.881">
  <g id="Group_24" data-name="Group 24" transform="translate(0 0)">
    <path id="Path_242" data-name="Path 242" d="M999.66,647.084a17.4,17.4,0,0,0,16.8-2.959c5.884-4.939,7.729-13.075,9.23-20.609l4.44-22.284-9.3,6.4c-6.685,4.6-13.52,9.353-18.148,16.02s-6.649,15.768-2.93,22.982" transform="translate(-507.48 -353.813)" fill="#e6e6e6"/>
    <path id="Path_243" data-name="Path 243" d="M1001.4,697.042c-.941-6.853-1.908-13.794-1.248-20.72a32.587,32.587,0,0,1,6.284-17.086,28.421,28.421,0,0,1,7.292-6.608c.729-.46,1.4.7.674,1.154a27.02,27.02,0,0,0-10.688,12.9c-2.327,5.919-2.7,12.37-2.3,18.658.243,3.8.756,7.579,1.274,11.352a.692.692,0,0,1-.467.822A.672.672,0,0,1,1001.4,697.042Z" transform="translate(-508.426 -376.792)" fill="#f2f2f2"/>
    <path id="Path_244" data-name="Path 244" d="M1019,699.953a12.807,12.807,0,0,0,11.158,5.759c5.648-.268,10.358-4.211,14.6-7.953l12.538-11.07-8.3-.4c-5.968-.286-12.089-.552-17.773,1.288s-10.926,6.269-11.965,12.153" transform="translate(-516.967 -391.83)" fill="#e6e6e6"/>
    <path id="Path_245" data-name="Path 245" d="M997.7,723.53c4.528-8.013,9.781-16.917,19.166-19.764a21.384,21.384,0,0,1,8.061-.832c.856.074.642,1.393-.212,1.319a19.869,19.869,0,0,0-12.865,3.4,33.438,33.438,0,0,0-8.842,9.542c-1.464,2.23-2.776,4.554-4.088,6.875C998.5,724.816,997.274,724.28,997.7,723.53Z" transform="translate(-507.384 -399.34)" fill="#f2f2f2"/>
    <ellipse id="Ellipse_60" data-name="Ellipse 60" cx="6.018" cy="2.257" rx="6.018" ry="2.257" transform="translate(53.368 323.326)" fill="#2f2e41"/>
    <ellipse id="Ellipse_61" data-name="Ellipse 61" cx="6.018" cy="2.257" rx="6.018" ry="2.257" transform="translate(67.813 323.026)" fill="#2f2e41"/>
    <ellipse id="Ellipse_62" data-name="Ellipse 62" cx="11.886" cy="3.731" rx="11.886" ry="3.731" transform="translate(78.979 289.076) rotate(-29.962)" fill="#2f2e41"/>
    <circle id="Ellipse_63" data-name="Ellipse 63" cx="23.773" cy="23.773" r="23.773" transform="translate(40.429 270.064)" fill="#2f2e41"/>
    <rect id="Rectangle_80" data-name="Rectangle 80" width="7.222" height="12.94" transform="translate(53.368 312.493)" fill="#2f2e41"/>
    <rect id="Rectangle_81" data-name="Rectangle 81" width="7.222" height="12.94" transform="translate(67.813 312.493)" fill="#2f2e41"/>
    <circle id="Ellipse_64" data-name="Ellipse 64" cx="8.125" cy="8.125" r="8.125" transform="translate(61.646 279.693)" fill="#fff"/>
    <ellipse id="Ellipse_65" data-name="Ellipse 65" cx="2.697" cy="2.716" rx="2.697" ry="2.716" transform="translate(69.806 286.703) rotate(-45.026)" fill="#3f3d56"/>
    <ellipse id="Ellipse_66" data-name="Ellipse 66" cx="11.886" cy="3.731" rx="11.886" ry="3.731" transform="matrix(0.257, -0.966, 0.966, 0.257, 35.736, 310.998)" fill="#2f2e41"/>
    <path id="Path_246" data-name="Path 246" d="M228.832,697.016c4.364,0,8.457-2.778,8.457-.451s-4.092,8.877-8.457,8.877-8.3-4.594-8.3-6.921S224.468,697.016,228.832,697.016Z" transform="translate(-159.245 -396.107)" fill="#fff"/>
    <ellipse id="Ellipse_67" data-name="Ellipse 67" cx="6.018" cy="2.257" rx="6.018" ry="2.257" transform="translate(367.23 241.602)" fill="#2f2e41"/>
    <ellipse id="Ellipse_68" data-name="Ellipse 68" cx="6.018" cy="2.257" rx="6.018" ry="2.257" transform="translate(352.786 241.301)" fill="#2f2e41"/>
    <ellipse id="Ellipse_69" data-name="Ellipse 69" cx="3.731" cy="11.886" rx="3.731" ry="11.886" transform="translate(329.329 201.944) rotate(-60.038)" fill="#2f2e41"/>
    <circle id="Ellipse_70" data-name="Ellipse 70" cx="23.773" cy="23.773" r="23.773" transform="translate(344.661 188.339)" fill="#2f2e41"/>
    <rect id="Rectangle_82" data-name="Rectangle 82" width="7.222" height="12.94" transform="translate(372.045 230.769)" fill="#2f2e41"/>
    <rect id="Rectangle_83" data-name="Rectangle 83" width="7.222" height="12.94" transform="translate(357.6 230.769)" fill="#2f2e41"/>
    <circle id="Ellipse_71" data-name="Ellipse 71" cx="8.125" cy="8.125" r="8.125" transform="translate(354.739 197.969)" fill="#fff"/>
    <ellipse id="Ellipse_72" data-name="Ellipse 72" cx="2.716" cy="2.697" rx="2.716" ry="2.697" transform="translate(355.171 204.999) rotate(-44.974)" fill="#3f3d56"/>
    <path id="Path_247" data-name="Path 247" d="M770.071,487.3c-9.489-2.119-15.777-5.289-13.858-13.886s11.168-13.848,20.656-11.729,15.625,10.805,13.705,19.4S779.559,489.422,770.071,487.3Z" transform="translate(-399.081 -291.086)" fill="#6c63ff"/>
    <ellipse id="Ellipse_73" data-name="Ellipse 73" cx="3.731" cy="11.886" rx="3.731" ry="11.886" transform="matrix(0.966, -0.257, 0.257, 0.966, 383.583, 208.217)" fill="#2f2e41"/>
    <path id="Path_248" data-name="Path 248" d="M760.346,548.961c-4.364,0-8.457-2.778-8.457-.451s4.092,8.877,8.457,8.877,8.3-4.594,8.3-6.921S764.711,548.961,760.346,548.961Z" transform="translate(-397.299 -329.777)" fill="#fff"/>
    <path id="Path_249" data-name="Path 249" d="M279.689,520.606a56.3,56.3,0,1,1,56.3-56.3A56.3,56.3,0,0,1,279.689,520.606Zm0-101.566A45.263,45.263,0,1,0,324.952,464.3,45.263,45.263,0,0,0,279.689,419.04Z" transform="translate(-160.522 -267.243)" fill="#3f3d56"/>
    <path id="Path_250" data-name="Path 250" d="M511.689,595.124c-15.621,0-30.071-10.139-40.691-28.549-10.068-17.454-15.612-40.543-15.612-65.013S460.931,454,471,436.549C481.617,418.139,496.068,408,511.689,408s30.072,10.139,40.691,28.549c10.068,17.454,15.612,40.543,15.612,65.013s-5.544,47.559-15.612,65.013C541.76,584.985,527.309,595.124,511.689,595.124Zm0-176.084c-11.509,0-22.563,8.177-31.127,23.025-9.115,15.8-14.136,36.933-14.136,59.5s5.02,43.694,14.136,59.5c8.564,14.848,19.619,23.025,31.127,23.025s22.563-8.177,31.127-23.025c9.115-15.8,14.136-36.933,14.136-59.5s-5.02-43.694-14.136-59.5C534.252,427.217,523.2,419.04,511.689,419.04Z" transform="translate(-264.461 -267.243)" fill="#3f3d56"/>
    <path id="Path_251" data-name="Path 251" d="M330.472,669.387H228.906a5.52,5.52,0,0,1-3.981-9.344l80.712-84.023a5.52,5.52,0,0,1,7.962,7.648l-71.736,74.679h88.609a5.52,5.52,0,0,1,0,11.04Z" transform="translate(-160.522 -341.759)" fill="#3f3d56"/>
    <path id="Path_252" data-name="Path 252" d="M732.689,520.606a56.3,56.3,0,1,1,56.3-56.3A56.3,56.3,0,0,1,732.689,520.606Zm0-101.566A45.263,45.263,0,1,0,777.952,464.3a45.263,45.263,0,0,0-45.263-45.263Z" transform="translate(-363.472 -267.243)" fill="#3f3d56"/>
    <path id="Path_253" data-name="Path 253" d="M783.471,669.387H681.906a5.52,5.52,0,0,1-3.981-9.344l80.711-84.023a5.52,5.52,0,1,1,7.961,7.648l-71.736,74.679h88.609a5.52,5.52,0,0,1,0,11.04Z" transform="translate(-363.472 -341.759)" fill="#3f3d56"/>
    <path id="Path_254" data-name="Path 254" d="M954.291,595.122a5.52,5.52,0,0,1-5.52-5.52V426.844L906.917,468.7a5.521,5.521,0,1,1-7.808-7.807l51.276-51.276a5.52,5.52,0,0,1,9.425,3.9V589.6A5.52,5.52,0,0,1,954.291,595.122Z" transform="translate(-462.53 -267.241)" fill="#3f3d56"/>
    <path id="Path_255" data-name="Path 255" d="M222.329,630.024l-4.016-4.8-3.187-3.815L210.5,615.88l-3.193-3.814-4.337-5.193a.627.627,0,0,0-1.067.186l-1.688,4.622-1.309,3.57-1.894,5.176-1.3,3.575-1.894,5.176-1.3,3.569-.971,2.652a.579.579,0,0,0-.032.322.652.652,0,0,0,.133.293.621.621,0,0,0,.587.213l29.73-5.192a.587.587,0,0,0,.437-.316.463.463,0,0,0,.042-.083.652.652,0,0,0,.026-.32A.579.579,0,0,0,222.329,630.024Z" transform="translate(-146.238 -356.241)" fill="#6c63ff"/>
    <path id="Path_256" data-name="Path 256" d="M107.015,466.962l-11.593-.628,1.309-3.57,7.092.385Z" transform="translate(-42.75 -207.324)" fill="#3f3d56"/>
    <path id="Path_257" data-name="Path 257" d="M112.23,483.4l-22.6-1.22,1.3-3.575,18.111.98Z" transform="translate(-40.155 -214.423)" fill="#3f3d56"/>
    <path id="Path_258" data-name="Path 258" d="M223.222,649a.587.587,0,0,1-.437.316l-14.454,2.524-14.993-.812,1.3-3.569Z" transform="translate(-147.06 -374.525)" fill="#3f3d56"/>
    <circle id="Ellipse_74" data-name="Ellipse 74" cx="4.978" cy="4.978" r="4.978" transform="translate(50.742 242.989)" fill="#6c63ff"/>
    <path id="Path_259" data-name="Path 259" d="M1000.6,399.189l-2.275-5.831-1.8-4.632-2.618-6.714-1.81-4.633-2.454-6.3a.627.627,0,0,0-1.07-.164l-3.074,3.842-2.38,2.966-3.446,4.3-2.374,2.973-3.446,4.3-2.374,2.967-1.766,2.2a.579.579,0,0,0-.133.294.652.652,0,0,0,.033.32.62.62,0,0,0,.488.389l29.833,4.56a.587.587,0,0,0,.516-.16.463.463,0,0,0,.067-.065.651.651,0,0,0,.127-.3.579.579,0,0,0-.039-.321Z" transform="translate(-494.823 -250.522)" fill="#6c63ff"/>
    <path id="Path_260" data-name="Path 260" d="M895.4,232.319l-10.788-4.293,2.38-2.966,6.6,2.626Z" transform="translate(-396.318 -100.83)" fill="#3f3d56"/>
    <path id="Path_261" data-name="Path 261" d="M895.1,249.564,874.07,241.2l2.375-2.973,16.852,6.7Z" transform="translate(-391.594 -106.729)" fill="#3f3d56"/>
    <path id="Path_262" data-name="Path 262" d="M1002,414.981a.587.587,0,0,1-.516.16l-14.5-2.217-13.951-5.551,2.374-2.967Z" transform="translate(-496.37 -265.633)" fill="#3f3d56"/>
    <circle id="Ellipse_75" data-name="Ellipse 75" cx="4.978" cy="4.978" r="4.978" transform="translate(489.73 112.724)" fill="#6c63ff"/>
    <path id="Path_263" data-name="Path 263" d="M681.4,263.4h-8.271a2.484,2.484,0,0,1-2.422-3.033l1.532-6.76c-19.655-3.2-34.441-24.666-34.441-50.1,0-27.849,17.7-50.507,39.467-50.507s39.467,22.657,39.467,50.507c0,25.432-14.786,46.9-34.441,50.1l1.532,6.76A2.484,2.484,0,0,1,681.4,263.4Z" transform="translate(-346.185 -153)" fill="#ff6584"/>
    <path id="Path_264" data-name="Path 264" d="M710.479,335.864H697.231a1.932,1.932,0,1,1,0-3.864h13.248a1.932,1.932,0,0,1,0,3.864Z" transform="translate(-371.945 -233.194)" fill="#3f3d56"/>
    <path id="Path_265" data-name="Path 265" d="M684.235,334.306a13.676,13.676,0,0,0-11.785,2.531,13.431,13.431,0,0,0-4.893,10.993c.4,9.019,9.484,13.866,15.813,18.717,7.479,5.732,14.5,12.345,19.568,20.352,5.019,7.929,8.166,17.325,7.437,26.789a31.381,31.381,0,0,1-10.7,21.6,25.325,25.325,0,0,1-2.521,1.836c-.894.574-.064,2.008.836,1.43,6.97-4.48,11.58-11.948,13.327-19.972,1.943-8.927.212-18.22-3.607-26.415-3.967-8.513-10.207-15.751-17.218-21.913-3.478-3.057-7.172-5.831-10.913-8.553-3.29-2.393-6.738-4.971-8.783-8.574a11.944,11.944,0,0,1-.125-11.627,11.709,11.709,0,0,1,10.135-5.96,11.521,11.521,0,0,1,2.99.365A.829.829,0,0,0,684.235,334.306Z" transform="translate(-359.51 -234.045)" fill="#3f3d56"/>
    <path id="Path_266" data-name="Path 266" d="M659.089,242.653a3.592,3.592,0,0,1-3.588-3.542,40.989,40.989,0,0,1,0-26.587,3.588,3.588,0,0,1,7.176.046l-.017.1a37.941,37.941,0,0,0,0,26.309l.016.092A3.592,3.592,0,0,1,659.089,242.653Z" transform="translate(-353.123 -178.07)" fill="#fff"/>
    <path id="Path_267" data-name="Path 267" d="M650.448,746.1h-540.4a.552.552,0,0,1,0-1.1h540.4a.552.552,0,0,1,0,1.1Z" transform="translate(-109.5 -418.223)" fill="#3f3d56"/>
    <rect id="Rectangle_84" data-name="Rectangle 84" width="3.312" height="10.488" transform="translate(172.157 107.638)" fill="#f2f2f2"/>
    <rect id="Rectangle_85" data-name="Rectangle 85" width="3.312" height="10.488" transform="translate(225.7 77.83)" fill="#f2f2f2"/>
    <rect id="Rectangle_86" data-name="Rectangle 86" width="3.312" height="10.488" transform="translate(212.86 112.017) rotate(-38.519)" fill="#f2f2f2"/>
    <rect id="Rectangle_87" data-name="Rectangle 87" width="10.488" height="3.312" transform="translate(194.598 150.817) rotate(-60)" fill="#f2f2f2"/>
    <rect id="Rectangle_88" data-name="Rectangle 88" width="10.488" height="3.312" transform="translate(179.693 48.699) rotate(-60)" fill="#f2f2f2"/>
    <rect id="Rectangle_89" data-name="Rectangle 89" width="3.312" height="10.488" transform="translate(397.368 86.662)" fill="#f2f2f2"/>
    <rect id="Rectangle_90" data-name="Rectangle 90" width="3.312" height="10.488" transform="translate(450.911 56.855)" fill="#f2f2f2"/>
    <rect id="Rectangle_91" data-name="Rectangle 91" width="3.312" height="10.488" transform="translate(438.071 91.041) rotate(-38.519)" fill="#f2f2f2"/>
    <rect id="Rectangle_92" data-name="Rectangle 92" width="10.488" height="3.312" transform="translate(419.809 129.84) rotate(-60)" fill="#f2f2f2"/>
    <rect id="Rectangle_93" data-name="Rectangle 93" width="10.488" height="3.312" transform="translate(404.904 27.723) rotate(-60)" fill="#f2f2f2"/>
    <path id="Path_268" data-name="Path 268" d="M528.894,630.084a17.4,17.4,0,0,1-16.8-2.959c-5.884-4.939-7.729-13.075-9.23-20.609l-4.44-22.284,9.3,6.4c6.685,4.6,13.52,9.353,18.148,16.02s6.649,15.768,2.93,22.982" transform="translate(-283.743 -346.197)" fill="#6c63ff"/>
    <path id="Path_269" data-name="Path 269" d="M541.379,680.041c.941-6.853,1.908-13.794,1.248-20.72a32.588,32.588,0,0,0-6.284-17.086,28.425,28.425,0,0,0-7.292-6.608c-.729-.46-1.4.7-.674,1.154a27.021,27.021,0,0,1,10.688,12.9c2.327,5.919,2.7,12.37,2.3,18.658-.243,3.8-.756,7.579-1.274,11.352a.692.692,0,0,0,.467.822.672.672,0,0,0,.822-.467Z" transform="translate(-297.022 -369.175)" fill="#f2f2f2"/>
    <path id="Path_270" data-name="Path 270" d="M504.688,682.953a12.807,12.807,0,0,1-11.158,5.759c-5.649-.268-10.358-4.211-14.6-7.953l-12.538-11.07,8.3-.4c5.968-.286,12.089-.552,17.773,1.288s10.926,6.269,11.965,12.153" transform="translate(-269.393 -384.214)" fill="#6c63ff"/>
    <path id="Path_271" data-name="Path 271" d="M534.461,706.53c-4.528-8.013-9.781-16.917-19.166-19.764a21.386,21.386,0,0,0-8.061-.832c-.856.074-.642,1.393.212,1.319a19.869,19.869,0,0,1,12.865,3.4,33.44,33.44,0,0,1,8.842,9.542c1.464,2.23,2.776,4.554,4.088,6.875C533.66,707.816,534.885,707.28,534.461,706.53Z" transform="translate(-287.445 -391.724)" fill="#f2f2f2"/>
    <path id="Path_272" data-name="Path 272" d="M300.894,495.084a17.4,17.4,0,0,1-16.8-2.959c-5.884-4.939-7.729-13.075-9.23-20.609l-4.44-22.284,9.3,6.4c6.685,4.6,13.52,9.353,18.148,16.02s6.649,15.768,2.93,22.982" transform="translate(-181.596 -285.715)" fill="#e6e6e6"/>
    <path id="Path_273" data-name="Path 273" d="M313.379,545.041c.941-6.853,1.908-13.794,1.248-20.72a32.588,32.588,0,0,0-6.284-17.086,28.423,28.423,0,0,0-7.292-6.608c-.729-.46-1.4.7-.674,1.154a27.021,27.021,0,0,1,10.688,12.9c2.327,5.919,2.7,12.37,2.3,18.658-.242,3.8-.756,7.579-1.274,11.352a.692.692,0,0,0,.467.822.672.672,0,0,0,.822-.467Z" transform="translate(-194.875 -308.693)" fill="#f2f2f2"/>
    <path id="Path_274" data-name="Path 274" d="M276.688,547.953a12.806,12.806,0,0,1-11.158,5.759c-5.649-.268-10.358-4.21-14.6-7.953l-12.538-11.07,8.3-.4c5.968-.286,12.089-.552,17.773,1.288s10.926,6.269,11.965,12.153" transform="translate(-167.246 -323.732)" fill="#e6e6e6"/>
    <path id="Path_275" data-name="Path 275" d="M306.461,571.53c-4.528-8.013-9.781-16.918-19.166-19.764a21.387,21.387,0,0,0-8.061-.832c-.856.074-.642,1.393.212,1.319a19.869,19.869,0,0,1,12.865,3.4,33.438,33.438,0,0,1,8.842,9.542c1.464,2.23,2.776,4.554,4.088,6.875C305.66,572.816,306.885,572.28,306.461,571.53Z" transform="translate(-185.298 -331.242)" fill="#f2f2f2"/>
  </g>
</svg>
